<svg width="24" height="26" viewBox="0 0 24 26" fill="none" xmlns="http://www.w3.org/2000/svg">
<g clip-path="url(#clip0_12_137)">
<path d="M23.9873 13.2297C23.9873 12.2235 23.9057 11.4892 23.729 10.7278H12.239V15.2693H18.9834C18.8474 16.3979 18.1132 18.0976 16.4814 19.2398L16.4586 19.3918L20.0915 22.2062L20.3432 22.2313C22.6547 20.0965 23.9873 16.9554 23.9873 13.2297Z" fill="#4285F4"/>
<path d="M12.239 25.1956C15.5432 25.1956 18.3171 24.1077 20.3432 22.2313L16.4814 19.2398C15.4481 19.9605 14.0611 20.4636 12.239 20.4636C9.00284 20.4636 6.25616 18.3288 5.27704 15.3782L5.13352 15.3904L1.35597 18.3138L1.30657 18.4512C3.31899 22.4488 7.45266 25.1956 12.239 25.1956Z" fill="#34A853"/>
<path d="M5.27704 15.3781C5.01869 14.6167 4.86917 13.8008 4.86917 12.9578C4.86917 12.1147 5.01869 11.2989 5.26344 10.5374L5.2566 10.3752L1.43171 7.40479L1.30657 7.46431C0.477156 9.12323 0.00123596 10.9861 0.00123596 12.9578C0.00123596 14.9294 0.477156 16.7922 1.30657 18.4511L5.27704 15.3781Z" fill="#FBBC05"/>
<path d="M12.239 5.45189C14.537 5.45189 16.0871 6.44451 16.971 7.27401L20.4247 3.9018C18.3036 1.93016 15.5432 0.719971 12.239 0.719971C7.45266 0.719971 3.31899 3.46666 1.30657 7.46431L5.26345 10.5374C6.25616 7.58673 9.00284 5.45189 12.239 5.45189Z" fill="#EB4335"/>
</g>
<defs>
<clipPath id="clip0_12_137">
<rect width="24" height="24.56" fill="white" transform="translate(0 0.719971)"/>
</clipPath>
</defs>
</svg>
