<svg width="293" height="39" viewBox="0 0 293 39" fill="none" xmlns="http://www.w3.org/2000/svg">
<g clip-path="url(#clip0_3089_442)">
<circle cx="19.5" cy="19.5" r="18.75" fill="#80B918" stroke="#55A630" stroke-width="1.5"/>
<path d="M30.55 21.3475C30.2837 21.0212 29.6462 20.5937 28.3862 21.4112C27.0887 22.2062 25.6337 23.0537 25.03 23.35C24.58 22.3937 23.755 22.2325 23.335 22.3C19.78 22.9187 18.4225 21.85 18.4187 21.85C18.3362 21.775 16.3862 20.0612 14.2075 21.2312C13.0337 21.8612 12.2725 22.0262 11.8825 22.0675V21.49C11.8825 21.2837 11.7137 21.115 11.5075 21.115H9.535C9.32875 21.115 9.16 21.2837 9.16 21.49V21.9025H7.5625C7.35625 21.9025 7.1875 22.0712 7.1875 22.2775C7.1875 22.4837 7.35625 22.6525 7.5625 22.6525H9.16V26.635H7.5625C7.35625 26.635 7.1875 26.8037 7.1875 27.01C7.1875 27.2162 7.35625 27.385 7.5625 27.385H9.16V27.7975C9.16 28.0037 9.32875 28.1725 9.535 28.1725H11.5075C11.7137 28.1725 11.8825 28.0037 11.8825 27.7975V27.7487H12.4037C12.4262 27.7487 14.5262 27.8237 16.5925 28.7087C17.86 29.2525 19.2137 29.5375 20.3125 29.5375C21.0587 29.5375 21.685 29.4062 22.09 29.1362C22.3375 28.9825 28.1537 25.33 30.4337 23.0125C30.8912 22.5475 30.9437 21.8312 30.55 21.3475ZM11.1287 27.4225H9.91V21.865H11.1325V27.4225H11.1287ZM29.8975 22.4875C27.6775 24.7412 21.7487 28.465 21.6812 28.5062C20.9912 28.9637 18.9625 28.9075 16.885 28.0187C14.6837 27.0775 12.5162 27.0025 12.4112 26.9987H11.8787V22.8212C12.3625 22.7837 13.24 22.6 14.56 21.8912C16.27 20.9725 17.8525 22.3487 17.9237 22.4125C17.9875 22.465 19.5137 23.725 23.4587 23.0387C23.485 23.035 24.1225 22.9487 24.4338 23.8675C24.4075 24.0925 24.1937 25.045 22.4912 25.1237H17.5937C17.3875 25.1237 17.2187 25.2925 17.2187 25.4987C17.2187 25.705 17.3875 25.8737 17.5937 25.8737H22.51C24.5237 25.7837 25.0225 24.655 25.1462 24.1112C25.6375 23.92 26.6237 23.3725 28.7875 22.045C29.1962 21.7787 29.7325 21.5275 29.9687 21.82C30.115 22.0037 30.085 22.2962 29.8975 22.4875Z" fill="white"/>
<path d="M20.6387 21.0738C24.115 21.0738 26.9425 18.2463 26.9425 14.7701C26.9425 11.2938 24.115 8.46631 20.6387 8.46631C17.1625 8.46631 14.335 11.2938 14.335 14.7701C14.335 18.2463 17.1625 21.0738 20.6387 21.0738ZM20.6387 9.21256C23.7025 9.21256 26.1925 11.7063 26.1925 14.7663C26.1925 17.8263 23.6987 20.3201 20.6387 20.3201C17.5787 20.3201 15.085 17.8263 15.085 14.7663C15.085 11.7063 17.575 9.21256 20.6387 9.21256Z" fill="white"/>
<path d="M20.6389 19.3788C23.1814 19.3788 25.2514 17.3088 25.2514 14.7663C25.2514 12.2238 23.1814 10.1538 20.6389 10.1538C18.0964 10.1538 16.0264 12.2238 16.0264 14.7663C16.0264 17.3088 18.0964 19.3788 20.6389 19.3788ZM20.6389 10.9076C22.7689 10.9076 24.5014 12.6401 24.5014 14.7701C24.5014 16.9001 22.7689 18.6326 20.6389 18.6326C18.5089 18.6326 16.7764 16.9001 16.7764 14.7701C16.7764 12.6401 18.5089 10.9076 20.6389 10.9076Z" fill="white"/>
<path d="M19.2626 15.25L18.7676 16.7725C18.7188 16.9263 18.7713 17.095 18.9026 17.1925C18.9701 17.2413 19.0451 17.2638 19.1239 17.2638C19.2026 17.2638 19.2776 17.2413 19.3451 17.1925L20.6388 16.2513L21.9326 17.1925C22.0638 17.2863 22.2438 17.2863 22.3751 17.1925C22.5063 17.0988 22.5626 16.9263 22.5101 16.7725L22.0151 15.25L23.3089 14.3088C23.4401 14.215 23.4963 14.0425 23.4438 13.8888C23.3913 13.735 23.2489 13.63 23.0876 13.63H21.4901L20.9951 12.1075C20.9463 11.9538 20.8001 11.8488 20.6388 11.8488C20.4776 11.8488 20.3313 11.9538 20.2826 12.1075L19.7876 13.63H18.1901C18.0288 13.63 17.8826 13.735 17.8338 13.8888C17.7851 14.0425 17.8376 14.2113 17.9688 14.3088L19.2626 15.25ZM20.0614 14.38C20.2226 14.38 20.3688 14.275 20.4176 14.1213L20.6388 13.4388L20.8601 14.1213C20.9088 14.275 21.0551 14.38 21.2163 14.38H21.9326L21.3513 14.8C21.2201 14.8938 21.1638 15.0663 21.2163 15.22L21.4376 15.9025L20.8563 15.4825C20.7251 15.3888 20.5488 15.3888 20.4138 15.4825L19.8326 15.9025L20.0539 15.22C20.1026 15.0663 20.0501 14.8975 19.9188 14.8L19.3376 14.38H20.0614Z" fill="white"/>
</g>
<path d="M48.7216 28V10.5455H55.267C56.608 10.5455 57.733 10.7784 58.642 11.2443C59.5568 11.7102 60.2472 12.3636 60.7131 13.2045C61.1847 14.0398 61.4205 15.0142 61.4205 16.1278C61.4205 17.2472 61.1818 18.2187 60.7045 19.0426C60.233 19.8608 59.5369 20.4943 58.6165 20.9432C57.696 21.3864 56.5653 21.608 55.2244 21.608H50.5625V18.983H54.7983C55.5824 18.983 56.2244 18.875 56.7244 18.6591C57.2244 18.4375 57.5938 18.1165 57.8324 17.696C58.0767 17.2699 58.1989 16.7472 58.1989 16.1278C58.1989 15.5085 58.0767 14.9801 57.8324 14.5426C57.5881 14.0994 57.2159 13.7642 56.7159 13.5369C56.2159 13.304 55.571 13.1875 54.7812 13.1875H51.8835V28H48.7216ZM57.7386 20.0909L62.0597 28H58.5312L54.2869 20.0909H57.7386ZM69.8026 28.2557C68.4901 28.2557 67.3565 27.983 66.402 27.4375C65.4531 26.8864 64.723 26.108 64.2116 25.1023C63.7003 24.0909 63.4446 22.9006 63.4446 21.5312C63.4446 20.1847 63.7003 19.0028 64.2116 17.9858C64.7287 16.9631 65.4503 16.1676 66.3764 15.5994C67.3026 15.0256 68.3906 14.7386 69.6406 14.7386C70.4474 14.7386 71.2088 14.8693 71.9247 15.1307C72.6463 15.3864 73.2827 15.7841 73.8338 16.3239C74.3906 16.8636 74.8281 17.5511 75.1463 18.3864C75.4645 19.2159 75.6236 20.2045 75.6236 21.3523V22.2983H64.8935V20.2188H72.6662C72.6605 19.6278 72.5327 19.1023 72.2827 18.642C72.0327 18.1761 71.6832 17.8097 71.2344 17.5426C70.7912 17.2756 70.2741 17.142 69.6832 17.142C69.0526 17.142 68.4986 17.2955 68.0213 17.6023C67.544 17.9034 67.1719 18.3011 66.9048 18.7955C66.6435 19.2841 66.5099 19.821 66.5043 20.4062V22.2216C66.5043 22.983 66.6435 23.6364 66.9219 24.1818C67.2003 24.7216 67.5895 25.1364 68.0895 25.4261C68.5895 25.7102 69.1747 25.8523 69.8452 25.8523C70.294 25.8523 70.7003 25.7898 71.0639 25.6648C71.4276 25.5341 71.7429 25.3438 72.0099 25.0938C72.277 24.8438 72.4787 24.5341 72.6151 24.1648L75.4957 24.4886C75.3139 25.25 74.9673 25.9148 74.456 26.483C73.9503 27.0455 73.3026 27.483 72.5128 27.7955C71.723 28.1023 70.8196 28.2557 69.8026 28.2557ZM80.8651 28L77.1662 14.9091H80.3111L82.6122 24.1136H82.7315L85.0838 14.9091H88.1946L90.5469 24.0625H90.6747L92.9418 14.9091H96.0952L92.3878 28H89.1747L86.7202 19.1534H86.5412L84.0866 28H80.8651ZM102.016 28.2642C101.187 28.2642 100.44 28.1165 99.7749 27.821C99.1158 27.5199 98.593 27.0767 98.2067 26.4915C97.826 25.9062 97.6357 25.1847 97.6357 24.3267C97.6357 23.5881 97.772 22.9773 98.0447 22.4943C98.3175 22.0114 98.6896 21.625 99.1612 21.3352C99.6328 21.0455 100.164 20.8267 100.755 20.679C101.352 20.5256 101.968 20.4148 102.604 20.3466C103.371 20.267 103.994 20.196 104.471 20.1335C104.948 20.0653 105.295 19.9631 105.511 19.8267C105.732 19.6847 105.843 19.4659 105.843 19.1705V19.1193C105.843 18.4773 105.653 17.9801 105.272 17.6278C104.891 17.2756 104.343 17.0994 103.627 17.0994C102.871 17.0994 102.272 17.2642 101.829 17.5938C101.391 17.9233 101.096 18.3125 100.942 18.7614L98.0618 18.3523C98.2891 17.5568 98.6641 16.892 99.1868 16.358C99.7095 15.8182 100.349 15.4148 101.104 15.1477C101.86 14.875 102.695 14.7386 103.61 14.7386C104.241 14.7386 104.869 14.8125 105.494 14.9602C106.119 15.108 106.69 15.3523 107.207 15.6932C107.724 16.0284 108.138 16.4858 108.451 17.0653C108.769 17.6449 108.928 18.3693 108.928 19.2386V28H105.962V26.2017H105.86C105.673 26.5653 105.408 26.9062 105.067 27.2244C104.732 27.5369 104.309 27.7898 103.798 27.983C103.292 28.1705 102.698 28.2642 102.016 28.2642ZM102.817 25.9972C103.437 25.9972 103.974 25.875 104.428 25.6307C104.883 25.3807 105.232 25.0511 105.477 24.642C105.727 24.233 105.852 23.7869 105.852 23.304V21.7614C105.755 21.8409 105.59 21.9148 105.357 21.983C105.13 22.0511 104.874 22.1108 104.59 22.1619C104.306 22.2131 104.025 22.2585 103.746 22.2983C103.468 22.3381 103.227 22.3722 103.022 22.4006C102.562 22.4631 102.15 22.5653 101.786 22.7074C101.423 22.8494 101.136 23.0483 100.925 23.304C100.715 23.554 100.61 23.8778 100.61 24.2756C100.61 24.8438 100.817 25.2727 101.232 25.5625C101.647 25.8523 102.175 25.9972 102.817 25.9972ZM112.031 28V14.9091H115.022V17.0909H115.158C115.397 16.3352 115.806 15.7528 116.386 15.3438C116.971 14.929 117.638 14.7216 118.388 14.7216C118.559 14.7216 118.749 14.7301 118.96 14.7472C119.175 14.7585 119.354 14.7784 119.496 14.8068V17.6449C119.366 17.5994 119.158 17.5597 118.874 17.5256C118.596 17.4858 118.326 17.4659 118.065 17.4659C117.502 17.4659 116.996 17.5881 116.548 17.8324C116.104 18.071 115.755 18.4034 115.499 18.8295C115.244 19.2557 115.116 19.7472 115.116 20.304V28H112.031ZM125.865 28.2301C124.837 28.2301 123.916 27.9659 123.104 27.4375C122.291 26.9091 121.649 26.142 121.178 25.1364C120.706 24.1307 120.47 22.9091 120.47 21.4716C120.47 20.017 120.709 18.7898 121.186 17.7898C121.669 16.7841 122.32 16.0256 123.138 15.5142C123.956 14.9972 124.868 14.7386 125.874 14.7386C126.641 14.7386 127.271 14.8693 127.766 15.1307C128.26 15.3864 128.652 15.696 128.942 16.0597C129.232 16.4176 129.456 16.7557 129.615 17.0739H129.743V10.5455H132.837V28H129.803V25.9375H129.615C129.456 26.2557 129.226 26.5937 128.925 26.9517C128.624 27.304 128.226 27.6051 127.732 27.8551C127.237 28.1051 126.615 28.2301 125.865 28.2301ZM126.726 25.6989C127.379 25.6989 127.936 25.5227 128.396 25.1705C128.857 24.8125 129.206 24.3153 129.445 23.679C129.683 23.0426 129.803 22.3011 129.803 21.4545C129.803 20.608 129.683 19.8722 129.445 19.2472C129.212 18.6222 128.865 18.1364 128.405 17.7898C127.95 17.4432 127.391 17.2699 126.726 17.2699C126.038 17.2699 125.464 17.4489 125.004 17.8068C124.544 18.1648 124.197 18.6591 123.964 19.2898C123.732 19.9205 123.615 20.642 123.615 21.4545C123.615 22.2727 123.732 23.0028 123.964 23.6449C124.203 24.2812 124.553 24.7841 125.013 25.1534C125.479 25.517 126.05 25.6989 126.726 25.6989ZM143.995 32.9091C143.575 32.9091 143.185 32.875 142.827 32.8068C142.475 32.7443 142.194 32.6705 141.984 32.5852L142.7 30.1818C143.148 30.3125 143.549 30.375 143.901 30.3693C144.254 30.3636 144.563 30.2528 144.83 30.0369C145.103 29.8267 145.333 29.4744 145.521 28.9801L145.785 28.2727L141.038 14.9091H144.31L147.327 24.7955H147.464L150.489 14.9091H153.771L148.529 29.5852C148.285 30.2784 147.961 30.8722 147.558 31.3665C147.154 31.8665 146.66 32.2472 146.075 32.5085C145.495 32.7756 144.802 32.9091 143.995 32.9091ZM161.17 28.2557C159.892 28.2557 158.784 27.9744 157.847 27.4119C156.909 26.8494 156.182 26.0625 155.665 25.0511C155.153 24.0398 154.898 22.858 154.898 21.5057C154.898 20.1534 155.153 18.9687 155.665 17.9517C156.182 16.9347 156.909 16.1449 157.847 15.5824C158.784 15.0199 159.892 14.7386 161.17 14.7386C162.449 14.7386 163.557 15.0199 164.494 15.5824C165.432 16.1449 166.156 16.9347 166.668 17.9517C167.185 18.9687 167.443 20.1534 167.443 21.5057C167.443 22.858 167.185 24.0398 166.668 25.0511C166.156 26.0625 165.432 26.8494 164.494 27.4119C163.557 27.9744 162.449 28.2557 161.17 28.2557ZM161.188 25.7841C161.881 25.7841 162.46 25.5937 162.926 25.2131C163.392 24.8267 163.739 24.3097 163.966 23.6619C164.199 23.0142 164.315 22.2926 164.315 21.4972C164.315 20.696 164.199 19.9716 163.966 19.3239C163.739 18.6705 163.392 18.1506 162.926 17.7642C162.46 17.3778 161.881 17.1847 161.188 17.1847C160.477 17.1847 159.886 17.3778 159.415 17.7642C158.949 18.1506 158.599 18.6705 158.366 19.3239C158.139 19.9716 158.026 20.696 158.026 21.4972C158.026 22.2926 158.139 23.0142 158.366 23.6619C158.599 24.3097 158.949 24.8267 159.415 25.2131C159.886 25.5937 160.477 25.7841 161.188 25.7841ZM178.406 22.4943V14.9091H181.491V28H178.499V25.6733H178.363C178.067 26.4062 177.582 27.0057 176.906 27.4716C176.235 27.9375 175.408 28.1705 174.425 28.1705C173.567 28.1705 172.809 27.9801 172.15 27.5994C171.496 27.2131 170.985 26.6534 170.616 25.9205C170.246 25.1818 170.062 24.2898 170.062 23.2443V14.9091H173.147V22.767C173.147 23.5966 173.374 24.2557 173.829 24.7443C174.283 25.233 174.88 25.4773 175.619 25.4773C176.073 25.4773 176.513 25.3665 176.94 25.1449C177.366 24.9233 177.715 24.5938 177.988 24.1562C178.266 23.7131 178.406 23.1591 178.406 22.4943ZM184.663 28V14.9091H187.655V17.0909H187.791C188.03 16.3352 188.439 15.7528 189.018 15.3438C189.604 14.929 190.271 14.7216 191.021 14.7216C191.192 14.7216 191.382 14.7301 191.592 14.7472C191.808 14.7585 191.987 14.7784 192.129 14.8068V17.6449C191.999 17.5994 191.791 17.5597 191.507 17.5256C191.229 17.4858 190.959 17.4659 190.697 17.4659C190.135 17.4659 189.629 17.5881 189.18 17.8324C188.737 18.071 188.388 18.4034 188.132 18.8295C187.876 19.2557 187.749 19.7472 187.749 20.304V28H184.663ZM199.501 13.196V10.5455H213.428V13.196H208.033V28H204.896V13.196H199.501ZM219.873 28.2557C218.56 28.2557 217.427 27.983 216.472 27.4375C215.523 26.8864 214.793 26.108 214.282 25.1023C213.771 24.0909 213.515 22.9006 213.515 21.5312C213.515 20.1847 213.771 19.0028 214.282 17.9858C214.799 16.9631 215.521 16.1676 216.447 15.5994C217.373 15.0256 218.461 14.7386 219.711 14.7386C220.518 14.7386 221.279 14.8693 221.995 15.1307C222.717 15.3864 223.353 15.7841 223.904 16.3239C224.461 16.8636 224.898 17.5511 225.217 18.3864C225.535 19.2159 225.694 20.2045 225.694 21.3523V22.2983H214.964V20.2188H222.737C222.731 19.6278 222.603 19.1023 222.353 18.642C222.103 18.1761 221.754 17.8097 221.305 17.5426C220.862 17.2756 220.344 17.142 219.754 17.142C219.123 17.142 218.569 17.2955 218.092 17.6023C217.614 17.9034 217.242 18.3011 216.975 18.7955C216.714 19.2841 216.58 19.821 216.575 20.4062V22.2216C216.575 22.983 216.714 23.6364 216.992 24.1818C217.271 24.7216 217.66 25.1364 218.16 25.4261C218.66 25.7102 219.245 25.8523 219.915 25.8523C220.364 25.8523 220.771 25.7898 221.134 25.6648C221.498 25.5341 221.813 25.3438 222.08 25.0938C222.347 24.8438 222.549 24.5341 222.685 24.1648L225.566 24.4886C225.384 25.25 225.038 25.9148 224.526 26.483C224.021 27.0455 223.373 27.483 222.583 27.7955C221.793 28.1023 220.89 28.2557 219.873 28.2557ZM232.071 28.2642C231.241 28.2642 230.494 28.1165 229.83 27.821C229.17 27.5199 228.648 27.0767 228.261 26.4915C227.881 25.9062 227.69 25.1847 227.69 24.3267C227.69 23.5881 227.827 22.9773 228.099 22.4943C228.372 22.0114 228.744 21.625 229.216 21.3352C229.688 21.0455 230.219 20.8267 230.81 20.679C231.406 20.5256 232.023 20.4148 232.659 20.3466C233.426 20.267 234.048 20.196 234.526 20.1335C235.003 20.0653 235.349 19.9631 235.565 19.8267C235.787 19.6847 235.898 19.4659 235.898 19.1705V19.1193C235.898 18.4773 235.707 17.9801 235.327 17.6278C234.946 17.2756 234.398 17.0994 233.682 17.0994C232.926 17.0994 232.327 17.2642 231.884 17.5938C231.446 17.9233 231.151 18.3125 230.997 18.7614L228.116 18.3523C228.344 17.5568 228.719 16.892 229.241 16.358C229.764 15.8182 230.403 15.4148 231.159 15.1477C231.915 14.875 232.75 14.7386 233.665 14.7386C234.295 14.7386 234.923 14.8125 235.548 14.9602C236.173 15.108 236.744 15.3523 237.261 15.6932C237.778 16.0284 238.193 16.4858 238.506 17.0653C238.824 17.6449 238.983 18.3693 238.983 19.2386V28H236.017V26.2017H235.915C235.727 26.5653 235.463 26.9062 235.122 27.2244C234.787 27.5369 234.364 27.7898 233.852 27.983C233.347 28.1705 232.753 28.2642 232.071 28.2642ZM232.872 25.9972C233.491 25.9972 234.028 25.875 234.483 25.6307C234.938 25.3807 235.287 25.0511 235.531 24.642C235.781 24.233 235.906 23.7869 235.906 23.304V21.7614C235.81 21.8409 235.645 21.9148 235.412 21.983C235.185 22.0511 234.929 22.1108 234.645 22.1619C234.361 22.2131 234.08 22.2585 233.801 22.2983C233.523 22.3381 233.281 22.3722 233.077 22.4006C232.616 22.4631 232.205 22.5653 231.841 22.7074C231.477 22.8494 231.19 23.0483 230.98 23.304C230.77 23.554 230.665 23.8778 230.665 24.2756C230.665 24.8438 230.872 25.2727 231.287 25.5625C231.702 25.8523 232.23 25.9972 232.872 25.9972ZM247.795 28.2557C246.489 28.2557 245.366 27.9688 244.429 27.3949C243.497 26.821 242.778 26.0284 242.273 25.017C241.773 24 241.523 22.8295 241.523 21.5057C241.523 20.1761 241.778 19.0028 242.29 17.9858C242.801 16.9631 243.523 16.1676 244.455 15.5994C245.392 15.0256 246.5 14.7386 247.778 14.7386C248.841 14.7386 249.781 14.9347 250.599 15.3267C251.423 15.7131 252.08 16.2614 252.568 16.9716C253.057 17.6761 253.335 18.5 253.403 19.4432H250.455C250.335 18.8125 250.051 18.2869 249.602 17.8665C249.159 17.4403 248.565 17.2273 247.821 17.2273C247.19 17.2273 246.636 17.3977 246.159 17.7386C245.682 18.0739 245.31 18.5568 245.043 19.1875C244.781 19.8182 244.651 20.5739 244.651 21.4545C244.651 22.3466 244.781 23.1136 245.043 23.7557C245.304 24.392 245.67 24.8835 246.142 25.2301C246.619 25.571 247.179 25.7415 247.821 25.7415C248.276 25.7415 248.682 25.6562 249.04 25.4858C249.403 25.3097 249.707 25.0568 249.952 24.7273C250.196 24.3977 250.364 23.9972 250.455 23.5256H253.403C253.33 24.4517 253.057 25.2727 252.585 25.9886C252.114 26.6989 251.472 27.2557 250.659 27.6591C249.847 28.0568 248.892 28.2557 247.795 28.2557ZM259.022 20.3295V28H255.937V10.5455H258.954V17.1335H259.107C259.414 16.3949 259.888 15.8125 260.531 15.3864C261.178 14.9545 262.002 14.7386 263.002 14.7386C263.911 14.7386 264.704 14.929 265.38 15.3097C266.056 15.6903 266.579 16.2472 266.948 16.9801C267.323 17.7131 267.511 18.608 267.511 19.6648V28H264.425V20.142C264.425 19.2614 264.198 18.5767 263.744 18.0881C263.295 17.5937 262.664 17.3466 261.852 17.3466C261.306 17.3466 260.817 17.4659 260.386 17.7045C259.96 17.9375 259.624 18.2756 259.38 18.7188C259.141 19.1619 259.022 19.6989 259.022 20.3295ZM276.451 28.2557C275.138 28.2557 274.005 27.983 273.05 27.4375C272.102 26.8864 271.371 26.108 270.86 25.1023C270.349 24.0909 270.093 22.9006 270.093 21.5312C270.093 20.1847 270.349 19.0028 270.86 17.9858C271.377 16.9631 272.099 16.1676 273.025 15.5994C273.951 15.0256 275.039 14.7386 276.289 14.7386C277.096 14.7386 277.857 14.8693 278.573 15.1307C279.295 15.3864 279.931 15.7841 280.482 16.3239C281.039 16.8636 281.477 17.5511 281.795 18.3864C282.113 19.2159 282.272 20.2045 282.272 21.3523V22.2983H271.542V20.2188H279.315C279.309 19.6278 279.181 19.1023 278.931 18.642C278.681 18.1761 278.332 17.8097 277.883 17.5426C277.44 17.2756 276.923 17.142 276.332 17.142C275.701 17.142 275.147 17.2955 274.67 17.6023C274.192 17.9034 273.82 18.3011 273.553 18.7955C273.292 19.2841 273.158 19.821 273.153 20.4062V22.2216C273.153 22.983 273.292 23.6364 273.57 24.1818C273.849 24.7216 274.238 25.1364 274.738 25.4261C275.238 25.7102 275.823 25.8523 276.494 25.8523C276.942 25.8523 277.349 25.7898 277.712 25.6648C278.076 25.5341 278.391 25.3438 278.658 25.0938C278.925 24.8438 279.127 24.5341 279.263 24.1648L282.144 24.4886C281.962 25.25 281.616 25.9148 281.104 26.483C280.599 27.0455 279.951 27.483 279.161 27.7955C278.371 28.1023 277.468 28.2557 276.451 28.2557ZM284.882 28V14.9091H287.874V17.0909H288.01C288.249 16.3352 288.658 15.7528 289.237 15.3438C289.822 14.929 290.49 14.7216 291.24 14.7216C291.411 14.7216 291.601 14.7301 291.811 14.7472C292.027 14.7585 292.206 14.7784 292.348 14.8068V17.6449C292.217 17.5994 292.01 17.5597 291.726 17.5256C291.447 17.4858 291.178 17.4659 290.916 17.4659C290.354 17.4659 289.848 17.5881 289.399 17.8324C288.956 18.071 288.607 18.4034 288.351 18.8295C288.095 19.2557 287.967 19.7472 287.967 20.304V28H284.882Z" fill="#55A630"/>
<defs>
<clipPath id="clip0_3089_442">
<rect width="39" height="39" fill="white"/>
</clipPath>
</defs>
</svg>
