<svg width="991" height="190" viewBox="0 0 991 190" fill="none" xmlns="http://www.w3.org/2000/svg">
<path d="M399.261 24.4545C399.261 27.6269 398.66 30.3258 397.457 32.5511C396.264 34.7765 394.635 36.4763 392.571 37.6506C390.516 38.8153 388.205 39.3977 385.639 39.3977C383.054 39.3977 380.734 38.8106 378.679 37.6364C376.624 36.4621 375 34.7623 373.807 32.5369C372.614 30.3116 372.017 27.6174 372.017 24.4545C372.017 21.2822 372.614 18.5833 373.807 16.358C375 14.1326 376.624 12.4375 378.679 11.2727C380.734 10.0985 383.054 9.51136 385.639 9.51136C388.205 9.51136 390.516 10.0985 392.571 11.2727C394.635 12.4375 396.264 14.1326 397.457 16.358C398.66 18.5833 399.261 21.2822 399.261 24.4545ZM393.026 24.4545C393.026 22.3996 392.718 20.6667 392.102 19.2557C391.496 17.8447 390.639 16.7746 389.531 16.0455C388.423 15.3163 387.126 14.9517 385.639 14.9517C384.152 14.9517 382.855 15.3163 381.747 16.0455C380.639 16.7746 379.777 17.8447 379.162 19.2557C378.556 20.6667 378.253 22.3996 378.253 24.4545C378.253 26.5095 378.556 28.2424 379.162 29.6534C379.777 31.0644 380.639 32.1345 381.747 32.8636C382.855 33.5928 384.152 33.9574 385.639 33.9574C387.126 33.9574 388.423 33.5928 389.531 32.8636C390.639 32.1345 391.496 31.0644 392.102 29.6534C392.718 28.2424 393.026 26.5095 393.026 24.4545ZM417.695 29.7102V17.1818H423.746V39H417.937V35.0369H417.71C417.217 36.3153 416.398 37.3428 415.252 38.1193C414.116 38.8958 412.728 39.2841 411.09 39.2841C409.632 39.2841 408.349 38.9527 407.241 38.2898C406.133 37.6269 405.266 36.6847 404.641 35.4631C404.026 34.2415 403.713 32.7784 403.704 31.0739V17.1818H409.755V29.9943C409.764 31.2822 410.11 32.3002 410.792 33.0483C411.474 33.7964 412.388 34.1705 413.533 34.1705C414.263 34.1705 414.944 34.0047 415.579 33.6733C416.213 33.3324 416.725 32.8305 417.113 32.1676C417.511 31.5047 417.705 30.6856 417.695 29.7102ZM428.587 39V17.1818H434.453V20.9886H434.68C435.078 19.6345 435.746 18.6117 436.683 17.9205C437.621 17.2197 438.7 16.8693 439.922 16.8693C440.225 16.8693 440.552 16.8883 440.902 16.9261C441.252 16.964 441.56 17.0161 441.825 17.0824V22.4517C441.541 22.3665 441.148 22.2907 440.646 22.2244C440.144 22.1581 439.685 22.125 439.268 22.125C438.378 22.125 437.583 22.3191 436.882 22.7074C436.191 23.0862 435.642 23.6165 435.234 24.2983C434.837 24.9801 434.638 25.7661 434.638 26.6562V39H428.587ZM454.325 39V9.90909H465.803C468.009 9.90909 469.889 10.3305 471.442 11.1733C472.995 12.0066 474.179 13.1667 474.993 14.6534C475.817 16.1307 476.229 17.8352 476.229 19.767C476.229 21.6989 475.812 23.4034 474.979 24.8807C474.145 26.358 472.938 27.5085 471.357 28.3324C469.785 29.1562 467.881 29.5682 465.646 29.5682H458.331V24.6392H464.652C465.836 24.6392 466.811 24.4356 467.578 24.0284C468.355 23.6117 468.932 23.0388 469.311 22.3097C469.699 21.571 469.893 20.7235 469.893 19.767C469.893 18.8011 469.699 17.9583 469.311 17.2386C468.932 16.5095 468.355 15.946 467.578 15.5483C466.802 15.1411 465.817 14.9375 464.624 14.9375H460.476V39H454.325ZM485.746 39.4119C484.354 39.4119 483.113 39.1705 482.024 38.6875C480.935 38.1951 480.073 37.4706 479.439 36.5142C478.814 35.5483 478.501 34.3456 478.501 32.9062C478.501 31.6941 478.724 30.6761 479.169 29.8523C479.614 29.0284 480.22 28.3655 480.987 27.8636C481.754 27.3617 482.625 26.983 483.601 26.7273C484.586 26.4716 485.618 26.2917 486.697 26.1875C487.966 26.0549 488.989 25.9318 489.766 25.8182C490.542 25.6951 491.106 25.5152 491.456 25.2784C491.806 25.0417 491.982 24.6913 491.982 24.2273V24.142C491.982 23.2424 491.697 22.5464 491.129 22.054C490.571 21.5616 489.775 21.3153 488.743 21.3153C487.654 21.3153 486.787 21.5568 486.143 22.0398C485.5 22.5133 485.073 23.1098 484.865 23.8295L479.268 23.375C479.553 22.0492 480.111 20.9034 480.945 19.9375C481.778 18.9621 482.853 18.214 484.169 17.6932C485.495 17.1629 487.029 16.8977 488.771 16.8977C489.983 16.8977 491.143 17.0398 492.251 17.3239C493.369 17.608 494.358 18.0483 495.22 18.6449C496.091 19.2415 496.778 20.0085 497.28 20.946C497.782 21.8741 498.033 22.9867 498.033 24.2841V39H492.294V35.9744H492.124C491.773 36.6562 491.304 37.2576 490.717 37.7784C490.13 38.2898 489.425 38.6922 488.601 38.9858C487.777 39.2699 486.825 39.4119 485.746 39.4119ZM487.479 35.2358C488.369 35.2358 489.155 35.0606 489.837 34.7102C490.518 34.3504 491.054 33.8674 491.442 33.2614C491.83 32.6553 492.024 31.9687 492.024 31.2017V28.8864C491.835 29.0095 491.574 29.1231 491.243 29.2273C490.921 29.322 490.556 29.4119 490.149 29.4972C489.742 29.5729 489.335 29.6439 488.928 29.7102C488.52 29.767 488.151 29.8191 487.82 29.8665C487.109 29.9706 486.489 30.1364 485.959 30.3636C485.429 30.5909 485.017 30.8987 484.723 31.2869C484.429 31.6657 484.283 32.1392 484.283 32.7074C484.283 33.5312 484.581 34.161 485.178 34.5966C485.784 35.0227 486.551 35.2358 487.479 35.2358ZM502.727 39V17.1818H508.594V20.9886H508.821C509.219 19.6345 509.886 18.6117 510.824 17.9205C511.761 17.2197 512.841 16.8693 514.062 16.8693C514.366 16.8693 514.692 16.8883 515.043 16.9261C515.393 16.964 515.701 17.0161 515.966 17.0824V22.4517C515.682 22.3665 515.289 22.2907 514.787 22.2244C514.285 22.1581 513.826 22.125 513.409 22.125C512.519 22.125 511.723 22.3191 511.023 22.7074C510.331 23.0862 509.782 23.6165 509.375 24.2983C508.977 24.9801 508.778 25.7661 508.778 26.6562V39H502.727ZM531.793 17.1818V21.7273H518.654V17.1818H531.793ZM521.637 11.9545H527.688V32.2955C527.688 32.8542 527.773 33.2898 527.944 33.6023C528.114 33.9053 528.351 34.1184 528.654 34.2415C528.967 34.3646 529.326 34.4261 529.734 34.4261C530.018 34.4261 530.302 34.4025 530.586 34.3551C530.87 34.2983 531.088 34.2557 531.239 34.2273L532.191 38.7301C531.888 38.8248 531.462 38.9337 530.913 39.0568C530.363 39.1894 529.696 39.2699 528.91 39.2983C527.451 39.3551 526.173 39.161 525.075 38.7159C523.986 38.2708 523.138 37.5795 522.532 36.642C521.926 35.7045 521.628 34.5208 521.637 33.0909V11.9545ZM541.786 26.3864V39H535.735V17.1818H541.502V21.0312H541.758C542.241 19.7623 543.05 18.7585 544.187 18.0199C545.323 17.2718 546.701 16.8977 548.32 16.8977C549.835 16.8977 551.156 17.2292 552.283 17.892C553.41 18.5549 554.286 19.5019 554.911 20.733C555.536 21.9545 555.849 23.4129 555.849 25.108V39H549.798V26.1875C549.807 24.8523 549.466 23.8106 548.775 23.0625C548.084 22.3049 547.132 21.9261 545.92 21.9261C545.105 21.9261 544.386 22.1013 543.761 22.4517C543.145 22.8021 542.662 23.3134 542.312 23.9858C541.971 24.6487 541.796 25.4489 541.786 26.3864ZM570.561 39.4261C568.317 39.4261 566.385 38.9716 564.766 38.0625C563.156 37.1439 561.915 35.8466 561.044 34.1705C560.173 32.4848 559.737 30.4915 559.737 28.1903C559.737 25.946 560.173 23.9763 561.044 22.2812C561.915 20.5862 563.142 19.2652 564.723 18.3182C566.314 17.3712 568.179 16.8977 570.32 16.8977C571.759 16.8977 573.099 17.1297 574.339 17.5938C575.589 18.0483 576.679 18.7348 577.607 19.6534C578.544 20.572 579.273 21.7273 579.794 23.1193C580.315 24.5019 580.575 26.1212 580.575 27.9773V29.6392H562.152V25.8892H574.879C574.879 25.018 574.69 24.2462 574.311 23.5739C573.932 22.9015 573.407 22.3759 572.734 21.9972C572.071 21.6089 571.3 21.4148 570.419 21.4148C569.5 21.4148 568.686 21.6278 567.976 22.054C567.275 22.4706 566.726 23.0341 566.328 23.7443C565.93 24.4451 565.727 25.2263 565.717 26.0881V29.6534C565.717 30.733 565.916 31.6657 566.314 32.4517C566.721 33.2377 567.294 33.8438 568.033 34.2699C568.771 34.696 569.647 34.9091 570.661 34.9091C571.333 34.9091 571.948 34.8144 572.507 34.625C573.066 34.4356 573.544 34.1515 573.942 33.7727C574.339 33.3939 574.643 32.9299 574.851 32.3807L580.447 32.75C580.163 34.0947 579.581 35.2689 578.7 36.2727C577.829 37.267 576.702 38.0436 575.32 38.6023C573.946 39.1515 572.36 39.4261 570.561 39.4261ZM584.524 39V17.1818H590.391V20.9886H590.618C591.016 19.6345 591.683 18.6117 592.621 17.9205C593.558 17.2197 594.638 16.8693 595.859 16.8693C596.162 16.8693 596.489 16.8883 596.839 16.9261C597.19 16.964 597.498 17.0161 597.763 17.0824V22.4517C597.479 22.3665 597.086 22.2907 596.584 22.2244C596.082 22.1581 595.623 22.125 595.206 22.125C594.316 22.125 593.52 22.3191 592.82 22.7074C592.128 23.0862 591.579 23.6165 591.172 24.2983C590.774 24.9801 590.575 25.7661 590.575 26.6562V39H584.524ZM619.045 23.4034L613.505 23.7443C613.41 23.2708 613.207 22.8447 612.894 22.4659C612.582 22.0777 612.17 21.7699 611.658 21.5426C611.156 21.3059 610.555 21.1875 609.854 21.1875C608.917 21.1875 608.126 21.3864 607.482 21.7841C606.838 22.1723 606.516 22.6932 606.516 23.3466C606.516 23.8674 606.725 24.3078 607.141 24.6676C607.558 25.0275 608.273 25.3163 609.286 25.5341L613.235 26.3295C615.356 26.7652 616.938 27.4659 617.979 28.4318C619.021 29.3977 619.542 30.6667 619.542 32.2386C619.542 33.6686 619.121 34.9233 618.278 36.0028C617.444 37.0824 616.299 37.9252 614.84 38.5312C613.391 39.1278 611.72 39.4261 609.826 39.4261C606.938 39.4261 604.637 38.8248 602.923 37.6222C601.218 36.41 600.219 34.7623 599.925 32.679L605.877 32.3665C606.057 33.2472 606.493 33.9195 607.184 34.3835C607.875 34.8381 608.761 35.0653 609.84 35.0653C610.901 35.0653 611.753 34.8617 612.397 34.4545C613.05 34.0379 613.382 33.5028 613.391 32.8494C613.382 32.3002 613.15 31.8504 612.695 31.5C612.241 31.1402 611.54 30.8655 610.593 30.6761L606.815 29.9233C604.684 29.4972 603.098 28.7585 602.056 27.7074C601.024 26.6562 600.508 25.3163 600.508 23.6875C600.508 22.286 600.887 21.0786 601.644 20.0653C602.411 19.0521 603.486 18.2708 604.869 17.7216C606.261 17.1723 607.889 16.8977 609.755 16.8977C612.511 16.8977 614.679 17.4801 616.261 18.6449C617.852 19.8097 618.78 21.3958 619.045 23.4034Z" fill="#012A4A"/>
<g clip-path="url(#clip0_110_175)">
<path fill-rule="evenodd" clip-rule="evenodd" d="M17.6496 143.864L17.696 143.439C18.2143 140.795 16.9901 139.662 13.1272 139.662C9.40541 139.662 7.75678 140.795 7.28588 143.439L7.19208 143.911C6.6738 146.557 8.36982 147.738 11.7135 147.738C15.1529 147.738 17.2251 146.131 17.6496 143.864ZM30.7913 141.928L35.2199 116.801C35.2594 116.576 35.3755 116.373 35.5481 116.227C35.7206 116.08 35.9385 116 36.1636 116H41.3309C41.4709 116 41.6091 116.031 41.736 116.091C41.8628 116.151 41.9751 116.239 42.065 116.347C42.1549 116.456 42.2203 116.583 42.2565 116.72C42.2928 116.856 42.2989 117 42.2747 117.139L40.8252 125.446C42.615 124.123 44.5934 123.179 48.2214 123.179C55.2868 123.179 58.0658 127.901 57.0766 133.521L55.428 142.778C54.2503 149.531 50.3409 152.79 41.6259 152.79C33.4301 152.79 29.6609 148.21 30.7913 141.928ZM48.5511 141.645L49.87 134.23C50.3873 131.301 49.257 129.318 45.4414 129.318C41.5794 129.318 39.7887 131.301 39.2704 134.23L37.9515 141.645C37.4332 144.573 38.5645 146.557 42.4265 146.557C46.242 146.557 48.0328 144.573 48.5511 141.645ZM86.0936 139.944H67.9586L67.5815 142.211C67.157 144.715 67.9103 146.981 72.4336 146.981C76.343 146.981 78.2275 145.848 78.651 143.487C78.6641 143.421 78.6996 143.36 78.7517 143.317C78.8037 143.274 78.869 143.25 78.9363 143.251H84.5852C84.702 143.251 84.8174 143.276 84.9236 143.326C85.0298 143.375 85.1242 143.447 85.2003 143.537C85.2765 143.626 85.3327 143.732 85.365 143.845C85.3974 143.959 85.4051 144.078 85.3877 144.195C84.3985 149.768 80.4882 152.79 71.8679 152.79C63.3414 152.79 59.668 148.115 60.751 142.117L62.2585 133.38C63.53 126.579 67.4403 123.179 76.1544 123.179C84.5397 123.179 88.2605 127.759 87.1775 133.9L86.0946 139.944H86.0936ZM69.0416 133.852L68.8066 135.316H80.0647L80.3471 133.805C80.8653 130.783 79.6412 128.988 75.5897 128.988C71.397 128.988 69.5599 130.972 69.0416 133.852ZM102.581 144.384C106.444 144.384 108.234 142.4 108.752 139.567L109.647 134.325C110.165 131.443 109.034 129.507 105.219 129.507C101.403 129.507 99.6134 131.443 99.0951 134.325L98.2007 139.567C97.6824 142.4 98.7654 144.384 102.581 144.384ZM105.878 123.179C114.075 123.179 117.938 127.854 116.807 134.23L113.793 151.326C112.378 159.119 107.998 162 100.32 162H99.5196C92.6891 162 88.2605 158.552 88.9674 152.932C88.994 152.786 89.0702 152.655 89.1827 152.56C89.2952 152.465 89.4369 152.413 89.5833 152.413H95.7978C95.4207 154.585 96.9756 156.096 100.273 156.096C104.465 156.096 106.208 154.16 106.679 151.468L107.338 147.926C105.549 149.343 103.617 150.146 99.8493 150.146C93.3486 150.146 90.0039 145.659 91.0869 139.473L92.1235 133.474C93.3012 126.721 97.2105 123.178 105.878 123.178V123.179ZM20.766 119.723C20.9118 119.723 21.0557 119.757 21.1866 119.822C21.3176 119.887 21.4322 119.981 21.5218 120.097C21.6114 120.214 21.6736 120.349 21.7036 120.494C21.7337 120.638 21.7308 120.788 21.6952 120.931L20.9807 123.802C25.3029 125.222 27.406 128.929 26.5986 133.521L24.9036 143.156C23.8593 149.051 20.4653 151.793 15.1887 152.585L14.5602 155.105C14.5081 155.315 14.3882 155.501 14.2197 155.634C14.0512 155.767 13.8437 155.839 13.63 155.839H7.98691C7.84092 155.839 7.69685 155.805 7.56568 155.74C7.4345 155.676 7.31968 155.581 7.22997 155.465C7.14026 155.348 7.07802 155.212 7.04799 155.068C7.01797 154.923 7.02095 154.773 7.05671 154.63L7.55855 152.619C2.37865 151.77 -0.526049 148.527 0.0773232 144.006L0.172083 143.345C0.831538 138.196 4.31736 135.174 12.4668 135.174C15.5755 135.174 17.8836 135.647 18.9675 136.261L19.391 133.758C19.9093 131.019 18.6852 129.177 15.1984 129.177C12.2782 129.177 10.1587 130.168 9.73514 132.671H2.95108C3.75557 126.938 6.84689 123.84 13.4898 123.274L14.1927 120.455C14.2452 120.246 14.3652 120.06 14.5337 119.927C14.7022 119.795 14.9095 119.723 15.1229 119.723H20.7651H20.766Z" fill="#753FF6"/>
</g>
<g clip-path="url(#clip1_110_175)">
<path d="M311.484 118.108C311.508 118.066 311.537 118.066 311.57 118.108L311.52 118.149L311.484 118.108Z" fill="#0124DD"/>
<path d="M268.289 132.714C268.832 131.053 269.347 129.482 269.851 127.926C269.913 127.736 270.039 127.692 270.203 127.661C272.924 127.148 275.655 126.711 278.434 126.85C280.395 126.943 282.281 127.348 283.97 128.412C286.26 129.853 287.307 132.024 287.455 134.685C287.542 136.215 287.296 137.726 287.079 139.224C286.63 142.277 286.167 145.326 285.733 148.379C285.721 148.507 285.676 148.629 285.601 148.733C285.526 148.837 285.425 148.919 285.308 148.97C283.537 149.953 281.616 150.491 279.641 150.818C277.198 151.246 274.706 151.31 272.245 151.008C270.194 150.747 268.281 150.103 266.792 148.579C266.146 147.91 265.644 147.112 265.319 146.237C264.994 145.361 264.852 144.427 264.903 143.494C264.954 142.56 265.196 141.647 265.614 140.813C266.032 139.979 266.617 139.242 267.332 138.648C268.859 137.379 270.664 136.748 272.564 136.339C275.443 135.723 278.348 135.807 281.255 136.031C281.617 136.058 281.696 135.945 281.713 135.618C281.843 133.326 280.482 131.68 278.092 131.237C276.434 130.929 274.806 131.195 273.177 131.465C271.516 131.741 269.881 132.159 268.289 132.714ZM278.457 139.629C277.422 139.622 276.389 139.699 275.366 139.859C274.26 140.049 273.187 140.344 272.296 141.085C271.288 141.924 271.019 143.049 271.218 144.288C271.406 145.419 272.188 146.039 273.202 146.404C273.666 146.569 274.15 146.674 274.64 146.718C276.453 146.894 278.212 146.575 279.961 146.138C280.08 146.122 280.188 146.063 280.267 145.971C280.345 145.88 280.387 145.763 280.386 145.642C280.625 143.845 280.862 142.047 281.125 140.255C281.17 139.945 281.068 139.886 280.813 139.836C280.034 139.706 279.246 139.637 278.457 139.629Z" fill="#114185"/>
<path d="M352.227 145.233C351.926 146.157 351.663 146.984 351.385 147.811C351.163 148.489 350.926 149.162 350.716 149.846C350.696 149.951 350.645 150.047 350.571 150.123C350.497 150.199 350.402 150.251 350.298 150.272C347.422 151.048 344.507 151.468 341.537 151.089C338.152 150.658 335.355 149.189 333.64 146.05C332.585 144.108 332.25 141.992 332.393 139.812C332.666 135.664 334.375 132.225 337.553 129.562C339.484 127.943 341.736 127.11 344.214 126.863C345.923 126.694 347.623 126.726 349.29 127.196C352.686 128.146 354.95 130.817 355.384 134.352C355.634 136.384 355.384 138.38 355.059 140.378C355.019 140.627 354.895 140.635 354.707 140.635C353.795 140.635 352.882 140.635 351.97 140.635C347.583 140.635 343.196 140.635 338.809 140.635C338.455 140.635 338.352 140.722 338.346 141.089C338.297 144.077 339.929 146.05 342.834 146.554C344.981 146.934 347.07 146.605 349.155 146.145C350.198 145.91 351.224 145.605 352.227 145.233ZM344.556 136.755H348.768C350.054 136.755 350.054 136.755 350.097 135.455C350.185 132.822 348.593 131.106 346.004 130.959C342.907 130.783 339.987 133.05 339.235 136.415C339.173 136.694 339.235 136.763 339.517 136.761C341.193 136.747 342.864 136.755 344.556 136.755Z" fill="#114185"/>
<path d="M363.038 151.166C360.277 151.147 357.537 150.685 354.92 149.797C354.658 149.706 354.589 149.63 354.683 149.343C355.113 148.026 355.525 146.703 355.918 145.374C356.016 145.047 356.131 145.073 356.39 145.199C358.904 146.442 361.743 146.847 364.499 146.354C365.146 146.255 365.759 146.001 366.289 145.613C366.534 145.441 366.738 145.216 366.886 144.954C367.033 144.692 367.121 144.4 367.142 144.1C367.164 143.799 367.118 143.497 367.009 143.217C366.899 142.936 366.729 142.684 366.511 142.479C366.033 142.031 365.497 141.653 364.917 141.353C363.478 140.54 362.015 139.778 360.649 138.835C356.977 136.293 357.424 131.003 361.04 128.682C362.642 127.654 364.396 127.139 366.259 126.943C369.365 126.618 372.368 127.156 375.327 128.057C375.598 128.139 375.667 128.213 375.564 128.503C375.118 129.752 374.688 131.009 374.284 132.273C374.176 132.606 374.049 132.581 373.795 132.463C371.944 131.58 369.917 131.138 367.87 131.17C366.878 131.195 365.909 131.36 365.069 131.954C364.712 132.184 364.439 132.526 364.293 132.929C364.147 133.331 364.135 133.77 364.26 134.179C364.422 134.638 364.728 135.032 365.131 135.299C366.001 135.961 366.998 136.407 367.951 136.936C369.117 137.551 370.231 138.265 371.279 139.068C374.378 141.555 374.064 146.292 371.091 148.698C369.173 150.247 366.928 150.867 364.541 151.088C363.941 151.141 363.345 151.15 363.038 151.166Z" fill="#114185"/>
<path d="M383.32 151.165C380.596 151.139 377.893 150.682 375.308 149.81C375.009 149.709 374.932 149.62 375.043 149.301C375.468 148.012 375.87 146.716 376.262 145.415C376.356 145.1 376.45 145.054 376.754 145.202C379.257 146.434 382.08 146.84 384.824 146.362C385.412 146.269 385.975 146.057 386.48 145.738C387.727 144.934 387.879 143.457 386.826 142.423C386.385 142.022 385.894 141.68 385.365 141.406C383.861 140.543 382.299 139.772 380.883 138.745C377.617 136.36 378.023 132.043 380.02 129.876C381.366 128.418 383.066 127.635 384.952 127.215C387.454 126.644 389.955 126.781 392.454 127.249C393.506 127.439 394.537 127.728 395.567 128.009C395.909 128.106 396.033 128.209 395.889 128.604C395.454 129.796 395.059 131.001 394.676 132.216C394.569 132.548 394.462 132.596 394.138 132.453C392.312 131.586 390.316 131.145 388.298 131.163C387.358 131.18 386.45 131.32 385.63 131.818C384.854 132.288 384.461 132.97 384.578 133.909C384.651 134.506 385.006 134.923 385.454 135.265C386.394 135.985 387.475 136.46 388.498 137.031C389.663 137.683 390.814 138.361 391.831 139.238C394.682 141.709 394.36 146.29 391.5 148.647C389.964 149.915 388.182 150.572 386.258 150.913C385.287 151.072 384.304 151.157 383.32 151.165Z" fill="#114185"/>
<path d="M308.833 145.569C308.737 146.14 308.495 146.651 308.316 147.189C307.976 148.213 307.613 149.229 307.276 150.255C307.251 150.358 307.195 150.45 307.115 150.518C307.036 150.586 306.937 150.627 306.832 150.635C304.576 151.015 302.296 151.257 300.004 151.082C296.584 150.821 293.651 149.561 291.635 146.615C290.214 144.539 289.712 142.18 289.838 139.696C290.048 135.552 291.785 132.161 294.987 129.564C296.822 128.078 298.981 127.348 301.28 127.044C304.127 126.636 307.025 126.811 309.803 127.559C310.333 127.705 310.845 127.91 311.366 128.081C311.554 128.142 311.602 128.224 311.533 128.431C311.089 129.743 310.649 131.058 310.234 132.379C310.142 132.67 310.012 132.611 309.826 132.537C308.498 131.987 307.092 131.654 305.661 131.55C302.564 131.374 299.872 132.235 297.939 134.841C296.129 137.283 295.848 141.34 297.787 143.792C298.992 145.313 300.583 146.119 302.47 146.341C304.507 146.581 306.475 146.183 308.419 145.619C308.543 145.583 308.669 145.558 308.795 145.528L308.833 145.569Z" fill="#114185"/>
<path d="M330.267 145.543C329.834 146.801 329.338 148.046 328.983 149.331C328.725 150.268 328.291 150.713 327.279 150.816C324.459 151.101 321.639 151.42 318.819 150.666C314.383 149.474 311.486 145.896 311.245 141.247C310.982 136.194 312.896 132.157 316.921 129.171C318.614 127.918 320.588 127.325 322.648 127.053C325.494 126.647 328.392 126.821 331.169 127.566C331.685 127.709 332.179 127.922 332.692 128.072C332.961 128.152 332.969 128.275 332.88 128.513C332.45 129.785 332.023 131.056 331.623 132.338C331.527 132.644 331.412 132.632 331.166 132.537C329.195 131.777 327.18 131.364 325.053 131.587C321.441 131.978 318.693 134.392 317.999 137.945C317.499 140.509 317.957 142.855 319.979 144.67C321.59 146.115 323.551 146.518 325.64 146.394C327.113 146.296 328.57 146.015 329.975 145.558C330.06 145.543 330.135 145.472 330.267 145.543Z" fill="#114185"/>
<path d="M258.64 140.312L235.219 116.633V120.267L255.045 140.312L255.053 140.319L237.879 157.682L237.858 157.661L220.696 140.312L220.681 140.296L229.106 131.779H225.449L217.017 140.304L217.024 140.312L237.851 161.367L237.858 161.36L258.659 140.331L258.64 140.312Z" fill="#FE6309"/>
<path d="M235.211 122.769V126.403L248.976 140.319L237.887 151.53L226.788 140.312L226.773 140.296L235.198 131.779H231.541L223.108 140.304L223.116 140.312L236.05 153.388L237.858 155.216L239.697 153.359L252.582 140.331L235.211 122.769Z" fill="#FE6309"/>
<path d="M246.511 140.312L239.643 133.36L237.815 131.512L236.018 133.33L229.114 140.304L236.021 147.288L237.83 149.116L239.665 147.259L246.53 140.331L246.511 140.312ZM237.862 145.444L232.786 140.312L232.771 140.296L237.834 135.177L242.91 140.31L237.862 145.444Z" fill="#FE6309"/>
</g>
<g clip-path="url(#clip2_110_175)">
<path d="M582.007 108L570.902 110.331V154.614H582.007V108Z" fill="#56BD82"/>
<path d="M550.387 121.238C546.998 121.238 543.684 122.23 540.866 124.09C538.048 125.95 535.852 128.593 534.555 131.685C533.258 134.778 532.918 138.181 533.58 141.464C534.241 144.747 535.873 147.763 538.269 150.129C540.666 152.496 543.72 154.108 547.044 154.761C550.368 155.414 553.814 155.079 556.945 153.798C560.076 152.517 562.753 150.348 564.636 147.565C566.519 144.782 567.524 141.509 567.524 138.162C567.523 133.674 565.718 129.369 562.504 126.195C559.29 123.021 554.932 121.238 550.387 121.238ZM550.387 143.646C549.289 143.646 548.215 143.325 547.302 142.722C546.389 142.119 545.677 141.263 545.257 140.261C544.836 139.259 544.727 138.156 544.941 137.092C545.155 136.028 545.684 135.051 546.46 134.284C547.237 133.517 548.226 132.995 549.304 132.783C550.381 132.572 551.497 132.68 552.512 133.096C553.527 133.511 554.394 134.214 555.004 135.115C555.614 136.017 555.94 137.077 555.94 138.162C555.94 139.617 555.355 141.011 554.313 142.04C553.272 143.068 551.86 143.646 550.387 143.646Z" fill="#56BD82"/>
<path d="M550.387 159.032C551.485 159.032 552.559 159.354 553.472 159.956C554.385 160.559 555.097 161.415 555.517 162.417C555.937 163.419 556.047 164.522 555.833 165.586C555.619 166.65 555.09 167.627 554.313 168.394C553.537 169.161 552.547 169.683 551.47 169.895C550.393 170.106 549.277 169.998 548.262 169.583C547.247 169.168 546.38 168.465 545.77 167.563C545.16 166.661 544.834 165.601 544.834 164.516C544.834 163.062 545.419 161.667 546.46 160.638C547.502 159.61 548.914 159.032 550.387 159.032Z" fill="#56BD82"/>
<path d="M525.677 129.967C527.041 127.785 527.79 125.284 527.848 122.721C527.906 120.158 527.27 117.627 526.006 115.388C524.742 113.149 522.896 111.283 520.658 109.985C518.42 108.686 515.871 108.001 513.275 108H496V154.614H515.435C518.326 154.613 521.152 153.763 523.553 152.172C525.954 150.582 527.822 148.322 528.92 145.68C530.017 143.039 530.295 140.134 529.718 137.336C529.14 134.538 527.734 131.973 525.677 129.967ZM507.121 118.968H513.291C514.211 118.968 515.094 119.329 515.745 119.972C516.396 120.615 516.761 121.487 516.761 122.396C516.761 123.305 516.396 124.176 515.745 124.819C515.094 125.462 514.211 125.823 513.291 125.823H507.121V118.968ZM515.45 143.646H507.121V136.791H515.45C516.371 136.791 517.254 137.152 517.904 137.795C518.555 138.438 518.921 139.31 518.921 140.219C518.921 141.128 518.555 142 517.904 142.642C517.254 143.285 516.371 143.646 515.45 143.646Z" fill="#56BD82"/>
<path d="M602.985 132.831V121.863H597.432V113.484L586.326 115.815V144.195C586.326 150.882 590.537 154.736 596.738 155.056C596.799 155.056 596.876 155.071 596.938 155.071H597.046C597.185 155.071 597.308 155.087 597.447 155.087H597.586C599.478 155.078 601.338 154.607 603 153.716V145.642C602.191 145.859 601.355 145.967 600.517 145.962C598.296 145.962 597.447 144.042 597.447 141.437V132.831H602.985Z" fill="#56BD82"/>
</g>
<path d="M804.146 89.8359H704.751V188.266H804.146V89.8359Z" fill="#162D4C"/>
<path d="M748.169 104.574V104.524H778.142V104.576L748.169 104.574Z" fill="#E4B935"/>
<path d="M748.169 104.574H778.142C777.915 105.653 777.693 106.733 777.461 107.811C776.574 111.937 775.684 116.061 774.791 120.184C774.431 121.86 774.07 123.537 773.705 125.211C773.659 125.415 773.68 125.487 773.911 125.49C774.735 125.502 775.559 125.49 776.383 125.458C776.786 125.435 777.191 125.461 777.587 125.536C778.308 125.687 778.509 126.202 778.078 126.801C777.836 127.112 777.523 127.362 777.163 127.527C776.35 127.942 775.471 128.12 774.576 128.235C774.135 128.302 773.689 128.336 773.243 128.337C773.07 128.337 773.026 128.416 772.997 128.554C772.722 129.846 772.445 131.141 772.166 132.438L769.622 144.313C769.571 144.554 769.519 144.794 769.471 145.036C769.446 145.173 769.397 145.256 769.239 145.227C769.196 145.223 769.153 145.223 769.111 145.227H739.783C739.429 145.227 739.43 145.227 739.506 144.868C740.974 138.022 742.442 131.176 743.909 124.329C744.236 122.802 744.565 121.275 744.894 119.75C744.923 119.661 744.917 119.566 744.878 119.481C744.44 118.623 744.301 117.692 744.209 116.752C743.975 114.361 744.537 112.077 745.195 109.811C745.386 109.158 746.102 108.756 746.884 108.844C747.172 108.875 747.254 108.798 747.308 108.529C747.568 107.239 747.853 105.955 748.132 104.669C748.141 104.636 748.153 104.604 748.169 104.574ZM758.366 125.688C758.442 125.68 758.52 125.68 758.596 125.688C759.538 125.9 760.02 125.349 760.401 124.63C760.444 124.548 760.488 124.464 760.525 124.379C760.79 123.783 760.789 123.782 760.302 123.359C760.27 123.329 760.235 123.302 760.199 123.278C759.986 123.149 759.987 123.012 760.118 122.801C760.523 122.149 761.115 121.63 761.819 121.312C762.523 120.993 763.306 120.889 764.07 121.013C764.331 121.048 764.577 121.154 764.781 121.319C765.451 121.851 766.143 122.352 766.85 122.835C767.5 123.292 768.178 123.708 768.881 124.08C769.141 124.215 769.156 124.209 769.132 123.932C769.087 123.407 769.034 122.883 768.975 122.36C768.842 121.183 768.482 120.098 767.722 119.153C767.177 118.476 766.659 117.777 766.103 117.108C766.049 117.05 766.009 116.981 765.986 116.906C765.963 116.83 765.957 116.751 765.97 116.673C766.094 115.708 766.096 115.702 765.488 114.939C764.149 113.258 762.559 111.818 760.933 110.417C760.838 110.345 760.726 110.296 760.608 110.276C759.484 110.002 758.335 109.846 757.178 109.81C756.506 109.779 755.884 109.852 755.333 110.26C754.883 110.594 754.406 110.649 753.841 110.556C752.016 110.255 750.181 110.009 748.349 109.751C747.815 109.677 747.287 109.547 746.742 109.574C746.273 109.595 746.013 109.757 745.894 110.139C745.31 112.028 744.864 113.945 744.929 115.939C744.963 117.779 745.578 119.563 746.688 121.039C747.924 122.689 749.597 123.748 751.51 124.465C753.715 125.289 756.02 125.584 758.36 125.684L758.366 125.688ZM758.16 138.206C758.051 138.277 757.98 138.324 757.908 138.369C757.015 138.924 756.123 139.48 755.225 140.027C755.044 140.137 755.036 140.194 755.205 140.333C756.647 141.511 758.082 142.699 759.521 143.882C759.557 143.912 759.59 143.964 759.666 143.929C759.682 143.665 759.713 143.395 759.709 143.125C759.708 142.82 759.773 142.518 759.899 142.24C760.3 141.293 760.683 140.339 761.077 139.39C761.127 139.273 761.15 139.147 761.143 139.02C761.108 138.18 761.076 137.339 761.05 136.499C761.045 136.347 760.999 136.199 760.915 136.072C760.004 134.613 759.1 133.151 758.186 131.694C758.146 131.636 758.12 131.569 758.11 131.5C758.099 131.43 758.106 131.359 758.129 131.292C758.281 130.771 758.419 130.245 758.571 129.723C758.628 129.519 758.645 129.306 758.622 129.095C758.569 128.52 758.519 127.944 758.479 127.368C758.468 127.176 758.413 127.113 758.208 127.112C756.844 127.113 755.483 126.979 754.146 126.713C750.663 125.999 747.856 124.273 745.854 121.329C745.814 121.27 745.794 121.187 745.687 121.163C745.676 121.211 745.664 121.258 745.653 121.305C744.765 125.479 743.877 129.653 742.989 133.829C742.877 134.35 742.877 134.356 743.407 134.411C743.749 134.447 744.074 134.555 744.437 134.424C746.193 133.799 747.961 133.205 749.722 132.588C749.809 132.549 749.906 132.534 750.001 132.546C750.097 132.558 750.187 132.596 750.262 132.656C752.6 134.308 754.943 135.954 757.29 137.594L758.16 138.206ZM749.926 133.558C749.926 134.807 749.926 136.038 749.926 137.27C749.928 137.48 749.886 137.689 749.803 137.882C749.123 139.485 748.452 141.091 747.77 142.693C747.731 142.768 747.713 142.851 747.716 142.934C747.719 143.018 747.744 143.099 747.789 143.17C747.933 143.421 748.06 143.68 748.179 143.944C748.201 144.011 748.245 144.068 748.305 144.106C748.364 144.145 748.435 144.161 748.505 144.154C750.145 144.145 751.784 144.154 753.423 144.147C753.494 144.147 753.575 144.18 753.651 144.097C753.501 143.791 753.356 143.474 753.193 143.168C753.11 143.02 753.085 142.848 753.123 142.683C753.525 140.739 753.916 138.792 754.324 136.849C754.365 136.656 754.324 136.56 754.169 136.453C752.825 135.526 751.483 134.596 750.143 133.662C750.084 133.6 750.004 133.562 749.918 133.554L749.926 133.558ZM772.601 127.689C772.79 127.689 772.978 127.695 773.167 127.689C774.292 127.644 775.404 127.507 776.475 127.139C776.805 127.042 777.108 126.874 777.365 126.647C777.487 126.532 777.597 126.396 777.526 126.221C777.463 126.066 777.293 126.055 777.151 126.054C776.808 126.054 776.463 126.045 776.121 126.076C774.674 126.212 773.214 126.105 771.804 125.758C769.295 125.141 767.059 123.969 764.991 122.464C764.722 122.256 764.402 122.125 764.064 122.085C763.098 121.983 762.26 122.205 761.636 122.996C761.52 123.142 761.517 123.235 761.669 123.367C762.465 124.066 763.323 124.693 764.232 125.239C766.797 126.788 769.563 127.687 772.593 127.685L772.601 127.689ZM764.924 126.586C764.95 126.763 764.975 126.892 764.988 127.029C765.031 127.468 765.176 127.894 765.132 128.341C764.996 129.711 764.701 131.057 764.52 132.421C764.38 133.483 764.237 134.546 764.294 135.619C764.341 136.486 764.625 137.267 765.368 137.782C766.068 138.268 766.837 138.416 767.646 138.002C767.709 137.976 767.762 137.931 767.797 137.873C767.832 137.815 767.848 137.747 767.842 137.68C767.838 137.392 767.81 137.104 767.756 136.82C767.72 136.641 767.661 136.594 767.466 136.629C766.738 136.758 766.239 136.24 766.381 135.525C766.506 134.897 766.758 134.311 766.999 133.723C767.585 132.31 768.281 130.945 768.89 129.541C769.046 129.145 769.141 128.729 769.173 128.305C769.19 128.167 769.173 128.095 768.998 128.073C768.71 128.031 768.425 127.972 768.143 127.897C767.016 127.604 765.933 127.163 764.924 126.586Z" fill="#DFAC0F"/>
<path d="M758.832 157.015C759.134 157.063 759.43 157.143 759.715 157.252C760.65 157.638 761.149 158.356 761.194 159.334C761.278 161.14 760.4 162.467 758.95 163.462C758.017 164.097 756.911 164.435 755.779 164.429C754.279 164.44 752.777 164.429 751.275 164.429C750.873 164.429 750.783 164.316 750.863 163.931C751.772 159.571 752.68 155.212 753.589 150.852C753.682 150.405 753.795 150.317 754.249 150.317C755.218 150.317 756.187 150.317 757.157 150.317C758.055 150.317 758.939 150.419 759.769 150.781C760.67 151.174 761.345 151.79 761.442 152.806C761.58 154.255 761.087 155.474 759.907 156.388C759.572 156.633 759.211 156.843 758.832 157.015ZM754.859 162.781V162.766C755.177 162.766 755.494 162.779 755.81 162.766C757.334 162.694 758.333 161.824 758.608 160.34C758.83 159.135 758.239 158.3 757.025 158.119C756.266 158.008 755.501 158.092 754.74 158.066C754.614 158.066 754.607 158.135 754.59 158.221C754.505 158.636 754.418 159.051 754.33 159.465C754.116 160.485 753.906 161.505 753.684 162.525C753.639 162.729 753.678 162.806 753.909 162.79C754.224 162.766 754.542 162.781 754.859 162.781ZM755.714 156.415C756.04 156.435 756.366 156.416 756.687 156.36C757.87 156.092 758.773 155.049 758.891 153.81C758.985 152.826 758.547 152.241 757.574 152.043C757.142 151.955 756.704 151.979 756.27 151.952C755.971 151.933 755.87 152.022 755.813 152.317C755.565 153.615 755.29 154.907 755.01 156.199C754.966 156.403 755.027 156.427 755.2 156.415C755.373 156.404 755.542 156.415 755.714 156.415Z" fill="white"/>
<path d="M770.822 155.502C770.957 155.17 771.082 154.89 771.185 154.607C771.214 154.495 771.283 154.398 771.378 154.332C771.474 154.266 771.59 154.237 771.706 154.249C772.144 154.258 772.582 154.249 773.019 154.249C773.344 154.249 773.439 154.368 773.377 154.675C772.896 157.027 772.416 159.38 771.935 161.733C771.886 161.922 771.869 162.119 771.885 162.314C771.93 162.64 772.04 162.756 772.369 162.799C772.575 162.825 772.662 162.937 772.627 163.129C772.568 163.454 772.5 163.779 772.421 164.1C772.404 164.198 772.351 164.287 772.273 164.349C772.195 164.412 772.096 164.443 771.996 164.439C771.583 164.458 771.171 164.418 770.77 164.32C770.136 164.155 769.79 163.75 769.71 163.096C769.701 163.022 769.698 162.946 769.69 162.859C769.579 162.885 769.54 162.977 769.484 163.04C768.207 164.421 766.625 164.911 764.781 164.594C763.539 164.38 762.767 163.612 762.489 162.384C762.251 161.339 762.378 160.307 762.592 159.278C762.843 158.054 763.266 156.9 764.034 155.882C765.359 154.108 767.493 153.732 769.117 154.135C769.868 154.327 770.422 154.778 770.822 155.502ZM764.745 161.157C764.746 161.387 764.766 161.617 764.805 161.844C764.917 162.521 765.294 162.897 765.978 163.01C767.317 163.232 768.599 162.656 769.265 161.466C769.926 160.269 770.248 158.917 770.198 157.553C770.175 156.588 769.712 155.989 768.892 155.751C768.411 155.621 767.906 155.602 767.416 155.695C766.549 155.84 766.043 156.415 765.689 157.148C765.075 158.415 764.857 159.774 764.745 161.157Z" fill="white"/>
<path d="M790.686 150.404C790.401 151.777 790.115 153.148 789.829 154.516C789.545 155.886 789.261 157.256 788.975 158.635C789.109 158.627 789.152 158.533 789.215 158.472C790.502 157.21 791.79 155.95 793.067 154.679C793.197 154.539 793.357 154.428 793.535 154.356C793.713 154.284 793.905 154.251 794.097 154.26C794.568 154.278 795.041 154.26 795.513 154.269C795.616 154.269 795.745 154.242 795.791 154.344C795.836 154.446 795.71 154.517 795.639 154.583C794.06 156.055 792.476 157.524 790.887 158.991C790.72 159.145 790.72 159.241 790.838 159.422C791.823 160.933 792.795 162.452 793.775 163.968C793.821 164.039 793.868 164.111 793.908 164.185C793.992 164.338 793.946 164.445 793.771 164.446C793.024 164.446 792.277 164.453 791.532 164.437C791.308 164.437 791.179 164.256 791.07 164.072C790.329 162.811 789.586 161.553 788.839 160.298C788.794 160.221 788.772 160.123 788.658 160.07C788.446 161.09 788.237 162.097 788.025 163.106C787.96 163.422 787.897 163.738 787.825 164.052C787.753 164.366 787.632 164.451 787.324 164.453C786.844 164.453 786.363 164.453 785.882 164.453C785.454 164.453 785.373 164.359 785.459 163.952C785.722 162.69 785.99 161.429 786.254 160.166C786.832 157.411 787.406 154.661 787.975 151.914C787.984 151.844 788.011 151.778 788.054 151.721C788.096 151.665 788.153 151.62 788.218 151.592C788.955 151.231 789.685 150.857 790.418 150.491C790.496 150.435 790.59 150.405 790.686 150.404Z" fill="white"/>
<path d="M777.997 155.895C778.355 155.422 778.767 154.992 779.225 154.613C780.308 153.736 782.502 153.873 783.519 154.794C784.343 155.541 784.567 156.499 784.389 157.538C784.157 158.883 783.849 160.215 783.58 161.554C783.521 161.845 783.466 162.14 783.547 162.438C783.604 162.647 783.694 162.815 783.959 162.813C784.182 162.813 784.268 162.948 784.231 163.151C784.172 163.475 784.106 163.8 784.03 164.122C784.013 164.216 783.961 164.301 783.885 164.36C783.81 164.42 783.715 164.45 783.618 164.446C783.206 164.468 782.793 164.427 782.394 164.323C781.467 164.065 781.01 163.405 781.055 162.385C781.085 161.692 781.29 161.031 781.413 160.356C781.58 159.438 781.859 158.54 781.91 157.602C781.922 157.416 781.922 157.229 781.91 157.043C781.838 156.013 781.189 155.521 780.169 155.692C779.85 155.743 779.545 155.861 779.276 156.037C779.006 156.212 778.777 156.443 778.603 156.712C778.144 157.379 777.949 158.14 777.786 158.918C777.431 160.611 777.073 162.304 776.712 163.997C776.636 164.354 776.513 164.447 776.144 164.448C775.647 164.448 775.148 164.448 774.651 164.448C774.335 164.448 774.239 164.32 774.299 164.011C774.779 161.685 775.262 159.359 775.747 157.033C775.8 156.776 775.864 156.523 775.786 156.253C775.724 156.049 775.613 155.917 775.374 155.897C775.087 155.874 775.025 155.775 775.083 155.489C775.14 155.204 775.198 154.923 775.258 154.642C775.271 154.535 775.324 154.436 775.406 154.365C775.488 154.295 775.595 154.257 775.704 154.259C776.124 154.233 776.546 154.273 776.954 154.38C777.633 154.574 777.916 154.918 777.984 155.614C777.984 155.687 777.984 155.761 777.997 155.895Z" fill="white"/>
<path d="M717.841 156.389H719.397C720.169 156.389 720.942 156.389 721.714 156.389C722.086 156.389 722.176 156.497 722.102 156.858C722.045 157.141 721.983 157.422 721.919 157.704C721.838 158.059 721.713 158.157 721.323 158.157C720.138 158.157 718.954 158.157 717.77 158.148C717.545 158.148 717.451 158.191 717.402 158.433C717.044 160.23 716.663 162.022 716.291 163.818C716.188 164.328 716.106 164.397 715.57 164.397C715.081 164.397 714.592 164.397 714.103 164.397C713.749 164.397 713.657 164.284 713.73 163.939C714.162 161.862 714.596 159.786 715.03 157.711C715.504 155.443 715.977 153.176 716.448 150.909C716.563 150.354 716.64 150.286 717.219 150.287L723.914 150.3C724.392 150.3 724.464 150.386 724.366 150.838C724.309 151.103 724.254 151.37 724.19 151.634C724.111 151.963 723.993 152.055 723.652 152.055C722.107 152.055 720.562 152.055 719.017 152.055C718.811 152.055 718.724 152.093 718.681 152.31C718.413 153.662 718.127 155.014 717.841 156.389Z" fill="white"/>
<path d="M738.102 164.653C737.287 164.646 736.479 164.508 735.708 164.245C735.436 164.161 735.189 164.014 734.987 163.816C734.781 163.602 734.781 163.408 734.961 163.179C735.078 163.033 735.209 162.899 735.335 162.758C735.644 162.408 735.695 162.396 736.159 162.554C736.802 162.768 737.448 162.962 738.131 162.996C738.736 163.027 739.33 163.004 739.901 162.773C740.125 162.686 740.325 162.545 740.48 162.362C740.636 162.18 740.743 161.962 740.793 161.728C740.889 161.36 740.78 161.106 740.454 160.902C740.106 160.7 739.735 160.541 739.348 160.43C738.909 160.29 738.471 160.138 738.025 160.022C736.429 159.601 736.044 158.409 736.357 157.051C736.728 155.434 738.02 154.297 739.737 154.054C740.96 153.884 742.167 153.952 743.318 154.455C743.55 154.546 743.763 154.675 743.95 154.839C744.141 155.02 744.156 155.171 743.991 155.372C743.785 155.615 743.571 155.843 743.366 156.086C743.263 156.205 743.15 156.197 743.019 156.16C742.517 156.018 742.038 155.8 741.522 155.708C740.934 155.606 740.345 155.57 739.764 155.735C739.513 155.801 739.284 155.929 739.098 156.108C738.912 156.286 738.776 156.509 738.702 156.755C738.516 157.301 738.719 157.691 739.274 157.863C739.959 158.076 740.649 158.278 741.334 158.485C741.68 158.58 742.013 158.717 742.325 158.893C742.904 159.235 743.191 159.748 743.225 160.404C743.316 162.164 742.359 163.561 740.596 164.246C739.839 164.54 739.05 164.656 738.102 164.653Z" fill="white"/>
<path d="M746.711 155.778C746.397 155.778 746.08 155.778 745.764 155.778C745.397 155.778 745.315 155.683 745.386 155.335C745.436 155.085 745.489 154.836 745.549 154.59C745.566 154.487 745.621 154.395 745.703 154.33C745.785 154.266 745.888 154.234 745.992 154.24C746.275 154.24 746.56 154.223 746.842 154.24C747.031 154.253 747.089 154.182 747.119 154.008C747.197 153.549 747.298 153.09 747.387 152.634C747.403 152.551 747.411 152.474 747.504 152.43C748.352 152.008 749.199 151.582 750.07 151.144C750.093 151.418 750.003 151.648 749.959 151.88C749.824 152.594 749.677 153.295 749.524 154.001C749.484 154.186 749.512 154.256 749.725 154.245C750.075 154.228 750.428 154.237 750.78 154.245C751.064 154.25 751.152 154.352 751.102 154.63C751.052 154.909 750.991 155.162 750.926 155.425C750.861 155.688 750.696 155.789 750.438 155.787C750.069 155.787 749.699 155.787 749.33 155.787C749.199 155.787 749.132 155.817 749.103 155.955C748.72 157.853 748.334 159.748 747.945 161.643C747.898 161.86 747.909 162.086 747.977 162.298C748.029 162.443 748.126 162.568 748.255 162.655C748.383 162.742 748.536 162.787 748.692 162.782C749.373 162.8 749.379 162.806 749.249 163.47C749.209 163.674 749.164 163.885 749.115 164.091C749.101 164.185 749.053 164.271 748.979 164.333C748.906 164.395 748.813 164.428 748.717 164.427C748.169 164.44 747.615 164.475 747.069 164.38C745.997 164.19 745.467 163.564 745.448 162.474C745.436 161.76 745.633 161.08 745.774 160.39C746.083 158.878 746.401 157.366 746.714 155.853C746.717 155.828 746.716 155.803 746.711 155.778Z" fill="white"/>
<path d="M732.49 155.378C732.59 155.251 732.696 155.13 732.808 155.014C733.578 154.292 734.518 154.05 735.55 154.069C735.756 154.069 735.846 154.135 735.79 154.364C735.679 154.817 735.593 155.276 735.494 155.732C735.407 156.14 735.272 156.207 734.861 156.157C733.807 156.03 732.655 156.389 732.312 157.891C731.854 159.901 731.417 161.915 730.973 163.928C730.87 164.408 730.779 164.482 730.276 164.481C729.822 164.481 729.367 164.481 728.913 164.481C728.557 164.481 728.47 164.367 728.545 164.021C729.051 161.691 729.558 159.362 730.065 157.034C730.12 156.828 730.147 156.617 730.146 156.404C730.129 156.066 730.006 155.925 729.663 155.87C729.457 155.837 729.36 155.723 729.4 155.515C729.459 155.209 729.517 154.903 729.587 154.597C729.602 154.494 729.654 154.4 729.734 154.332C729.814 154.265 729.916 154.229 730.021 154.232C730.552 154.223 731.085 154.232 731.601 154.388C732.081 154.533 732.376 154.839 732.417 155.355L732.49 155.378Z" fill="white"/>
<path d="M723.479 162.699C723.501 161.972 723.713 161.277 723.866 160.573C724.285 158.635 724.716 156.697 725.143 154.759C725.221 154.403 725.349 154.306 725.709 154.304C726.19 154.304 726.671 154.304 727.151 154.304C727.513 154.304 727.601 154.406 727.525 154.752C727.019 157.074 726.511 159.394 726.002 161.715C725.932 161.996 725.907 162.286 725.927 162.574C725.958 162.9 726.074 163.023 726.391 163.07C726.581 163.099 726.668 163.21 726.636 163.388C726.577 163.723 726.509 164.055 726.43 164.385C726.411 164.473 726.361 164.552 726.29 164.607C726.218 164.663 726.129 164.693 726.038 164.691C725.523 164.707 725.008 164.666 724.524 164.463C723.806 164.168 723.461 163.57 723.479 162.699Z" fill="white"/>
<path d="M759.464 170.667C760.333 171.155 760.409 172.136 759.67 172.843C759.13 173.363 757.952 173.53 757.282 173.183C757.126 173.109 756.995 172.992 756.903 172.846C756.812 172.7 756.765 172.532 756.767 172.36C756.747 172.066 756.81 171.772 756.951 171.511C757.091 171.251 757.303 171.035 757.561 170.888C757.69 170.809 757.831 170.749 757.965 170.684C757.965 170.665 757.965 170.641 757.957 170.637C757.224 170.262 757.387 169.573 757.77 169.034C757.964 168.781 758.241 168.604 758.554 168.533C758.904 168.442 759.27 168.428 759.625 168.492C759.967 168.548 760.28 168.689 760.386 169.052C760.451 169.246 760.465 169.452 760.426 169.653C760.387 169.853 760.297 170.04 760.165 170.196C759.983 170.408 759.742 170.535 759.464 170.667ZM757.645 172.105C757.637 172.251 757.684 172.394 757.777 172.507C757.869 172.62 758.001 172.695 758.146 172.717C758.827 172.862 759.485 172.172 759.315 171.493C759.288 171.359 759.215 171.238 759.108 171.151C759.001 171.064 758.866 171.017 758.728 171.017C758.148 170.992 757.643 171.498 757.645 172.105ZM759.069 169.078C758.971 169.077 758.873 169.096 758.782 169.132C758.691 169.169 758.608 169.223 758.538 169.292C758.468 169.36 758.412 169.442 758.374 169.532C758.336 169.621 758.316 169.718 758.315 169.815C758.311 169.883 758.32 169.951 758.343 170.015C758.366 170.079 758.401 170.138 758.447 170.188C758.493 170.239 758.549 170.279 758.611 170.308C758.673 170.337 758.74 170.353 758.808 170.356C759.184 170.362 759.581 169.948 759.589 169.549C759.594 169.27 759.384 169.08 759.069 169.078Z" fill="white"/>
<path d="M764.227 169.41C764.206 169.183 764.11 168.969 763.954 168.802C763.798 168.634 763.59 168.522 763.363 168.483C763.041 168.426 762.709 168.452 762.399 168.558C761.511 168.875 761.189 169.591 761.105 170.436C761.018 171.346 761.551 171.815 762.472 171.709C762.82 171.669 763.06 171.476 763.308 171.25C763.283 171.547 763.188 171.834 763.03 172.088C762.764 172.565 762.365 172.808 761.801 172.714C761.614 172.693 761.429 172.654 761.25 172.598C760.941 172.482 760.933 172.753 760.846 172.893C760.737 173.067 760.927 173.105 761.028 173.154C761.88 173.573 762.815 173.392 763.397 172.627C764.126 171.682 764.382 170.585 764.227 169.41ZM763.49 169.862C763.452 170.149 763.359 170.426 763.215 170.678C763.052 170.942 762.829 171.101 762.5 171.086C762.088 171.076 761.908 170.893 761.917 170.426C761.936 170.149 762.009 169.878 762.131 169.629C762.208 169.457 762.336 169.312 762.498 169.214C762.738 169.077 763.003 169.002 763.251 169.159C763.499 169.316 763.536 169.587 763.49 169.862Z" fill="white"/>
<path d="M766.551 172.15H764.728C764.476 172.15 764.427 172.071 764.543 171.844C764.588 171.763 764.644 171.688 764.709 171.622C765.543 170.675 766.389 169.74 767.206 168.78C767.446 168.497 767.721 168.527 768.019 168.542C768.187 168.55 768.122 168.688 768.102 168.778C767.957 169.484 767.81 170.189 767.661 170.893C767.636 171.053 767.602 171.21 767.558 171.366C767.5 171.545 767.58 171.555 767.728 171.564C767.845 171.57 768.052 171.462 768.047 171.717C768.039 172.063 767.963 172.173 767.702 172.146C767.44 172.118 767.348 172.221 767.332 172.452C767.32 172.536 767.303 172.619 767.281 172.701C767.153 173.325 767.153 173.32 766.509 173.285C766.349 173.276 766.32 173.213 766.349 173.081C766.416 172.782 766.479 172.484 766.551 172.15ZM767.033 169.82L765.565 171.554C765.938 171.554 766.242 171.554 766.546 171.554C766.565 171.557 766.584 171.556 766.602 171.55C766.621 171.545 766.638 171.536 766.653 171.524C766.667 171.512 766.679 171.497 766.688 171.48C766.697 171.463 766.701 171.445 766.702 171.426C766.805 170.916 766.912 170.404 767.032 169.819L767.033 169.82Z" fill="white"/>
<path d="M737.17 173.341C736.777 173.341 736.388 173.265 736.024 173.117C735.933 173.078 735.755 173.055 735.836 172.913C735.918 172.771 735.932 172.496 736.223 172.564C736.62 172.669 737.031 172.719 737.442 172.713C737.658 172.708 737.87 172.652 738.06 172.549C738.539 172.284 738.557 171.778 738.083 171.501C737.85 171.379 737.609 171.271 737.362 171.179C736.345 170.746 736.157 169.763 736.963 169.002C737.612 168.39 738.394 168.338 739.221 168.548C739.295 168.568 739.367 168.594 739.44 168.619C739.833 168.752 739.84 168.781 739.626 169.117C739.615 169.141 739.599 169.163 739.579 169.182C739.559 169.2 739.536 169.215 739.51 169.224C739.485 169.234 739.458 169.238 739.43 169.237C739.403 169.236 739.377 169.23 739.352 169.219C738.95 169.095 738.527 169.049 738.108 169.084C737.965 169.093 737.827 169.135 737.704 169.207C737.582 169.279 737.478 169.379 737.402 169.498C737.196 169.83 737.272 170.131 737.623 170.301C737.861 170.416 738.113 170.505 738.356 170.607C739.404 171.047 739.553 172.206 738.652 172.902C738.278 173.187 737.782 173.338 737.17 173.341Z" fill="white"/>
<path d="M743.248 170.363C743.488 170.107 743.689 169.865 744.024 169.792C744.931 169.594 745.558 170.194 745.372 171.093C745.286 171.517 745.194 171.939 745.112 172.363C745.083 172.514 745.065 172.65 745.27 172.733C745.431 172.799 745.292 172.957 745.287 173.073C745.289 173.098 745.285 173.124 745.277 173.148C745.268 173.172 745.255 173.194 745.237 173.213C745.22 173.231 745.199 173.246 745.175 173.256C745.151 173.266 745.126 173.271 745.1 173.271C744.538 173.334 744.186 172.976 744.284 172.421C744.359 172.004 744.449 171.59 744.532 171.174C744.547 171.107 744.556 171.038 744.559 170.97C744.567 170.728 744.559 170.483 744.301 170.358C744.078 170.249 743.729 170.342 743.529 170.562C743.33 170.782 743.238 171.072 743.176 171.368C743.057 171.932 742.933 172.495 742.821 173.061C742.82 173.092 742.812 173.123 742.798 173.151C742.784 173.179 742.764 173.204 742.74 173.224C742.716 173.244 742.688 173.259 742.657 173.268C742.627 173.276 742.595 173.278 742.563 173.274C741.961 173.288 741.962 173.293 742.083 172.709C742.217 172.061 742.35 171.413 742.482 170.766C742.514 170.608 742.559 170.44 742.323 170.381C742.22 170.355 742.243 170.258 742.27 170.191C742.317 170.073 742.258 169.903 742.44 169.852C742.527 169.825 742.619 169.817 742.71 169.828C742.801 169.84 742.887 169.872 742.965 169.92C743.042 169.969 743.107 170.034 743.156 170.11C743.205 170.187 743.237 170.273 743.248 170.363Z" fill="white"/>
<path d="M750.968 171.838C750.746 171.838 750.521 171.849 750.3 171.838C750.135 171.828 750.094 171.897 750.094 172.042C750.072 172.578 750.365 172.863 750.901 172.798C751.122 172.77 751.339 172.721 751.55 172.651C751.714 172.597 751.775 172.651 751.84 172.788C751.904 172.926 751.876 173.032 751.737 173.102C751.313 173.314 750.836 173.4 750.365 173.348C749.566 173.271 749.205 172.813 749.28 172.017C749.312 171.585 749.427 171.163 749.619 170.773C750.013 169.995 750.752 169.636 751.598 169.804C752.091 169.906 752.381 170.225 752.406 170.722C752.414 170.875 752.404 171.028 752.375 171.178C752.272 171.669 752.066 171.836 751.56 171.846C751.364 171.846 751.166 171.846 750.969 171.846L750.968 171.838ZM750.23 171.28H751.329C751.371 171.285 751.413 171.278 751.452 171.26C751.49 171.242 751.522 171.213 751.545 171.178C751.656 170.989 751.604 170.593 751.442 170.438C751.28 170.283 751.039 170.271 750.8 170.406C750.465 170.592 750.343 170.926 750.23 171.28Z" fill="white"/>
<path d="M727.243 150.424C727.517 150.424 727.791 150.418 728.067 150.424C728.316 150.431 728.414 150.544 728.367 150.781C728.26 151.313 728.146 151.843 728.027 152.37C727.964 152.643 727.821 152.754 727.533 152.756C727.018 152.756 726.503 152.756 725.988 152.756C725.666 152.751 725.576 152.629 725.645 152.319C725.748 151.823 725.859 151.326 725.971 150.831C726.038 150.535 726.171 150.43 726.471 150.423C726.727 150.423 726.986 150.423 727.241 150.423L727.243 150.424Z" fill="white"/>
<path d="M755.387 169.515C755.109 169.63 754.859 169.733 754.608 169.832C754.546 169.856 754.457 169.899 754.419 169.874C754.344 169.827 754.403 169.735 754.407 169.661C754.423 169.396 754.56 169.242 754.819 169.145C755.291 168.966 755.746 168.752 756.213 168.556C756.281 168.526 756.356 168.454 756.419 168.496C756.482 168.539 756.428 168.638 756.419 168.708C756.123 170.146 755.823 171.583 755.53 173.021C755.491 173.214 755.404 173.283 755.201 173.28C754.615 173.272 754.619 173.28 754.74 172.714C754.954 171.71 755.162 170.705 755.372 169.7C755.38 169.652 755.379 169.6 755.387 169.515Z" fill="white"/>
<path d="M746.045 172.121C746.055 171.653 746.168 171.192 746.376 170.771C746.806 169.884 747.951 169.485 748.826 169.921C748.937 169.977 749.144 170.006 749.071 170.209C748.987 170.435 748.785 170.532 748.585 170.438C747.797 170.071 747.24 170.533 747.028 171.184C746.915 171.505 746.863 171.844 746.876 172.184C746.903 172.606 747.167 172.83 747.597 172.796C747.801 172.769 748.001 172.718 748.192 172.645C748.295 172.611 748.388 172.578 748.441 172.72C748.484 172.837 748.567 172.939 748.426 173.059C747.992 173.425 746.874 173.454 746.428 173.101C746.102 172.85 746.036 172.499 746.045 172.121Z" fill="white"/>
<path d="M739.937 172.504C740.032 172.036 740.143 171.484 740.259 170.924C740.319 170.633 740.389 170.345 740.441 170.053C740.441 170.022 740.449 169.991 740.463 169.962C740.476 169.934 740.496 169.909 740.52 169.889C740.544 169.869 740.573 169.854 740.603 169.845C740.634 169.836 740.666 169.834 740.697 169.839C741.306 169.82 741.303 169.815 741.181 170.397C741.046 171.044 740.912 171.691 740.784 172.34C740.753 172.497 740.723 172.646 740.944 172.73C741.101 172.79 740.968 172.934 740.963 173.048C740.958 173.161 740.927 173.243 740.796 173.269C740.333 173.359 739.937 173.05 739.937 172.504Z" fill="white"/>
<path d="M741.186 168.383C741.289 168.383 741.369 168.383 741.445 168.383C741.521 168.383 741.59 168.416 741.575 168.502C741.539 168.692 741.496 168.881 741.449 169.069C741.43 169.14 741.364 169.165 741.292 169.178C740.685 169.286 740.615 169.201 740.738 168.611C740.801 168.29 741.034 168.411 741.186 168.383Z" fill="white"/>
<path d="M758.36 125.684C756.02 125.582 753.715 125.289 751.508 124.46C749.595 123.746 747.922 122.684 746.686 121.034C745.576 119.558 744.961 117.774 744.927 115.934C744.866 113.94 745.308 112.023 745.892 110.134C746.011 109.752 746.271 109.59 746.74 109.569C747.285 109.542 747.813 109.671 748.347 109.746C750.179 110.003 752.014 110.25 753.839 110.551C754.403 110.644 754.881 110.589 755.331 110.255C755.882 109.847 756.504 109.774 757.176 109.805C758.333 109.843 759.483 110.002 760.607 110.279C760.725 110.3 760.837 110.348 760.932 110.42C762.558 111.821 764.145 113.261 765.487 114.942C766.095 115.703 766.093 115.709 765.969 116.676C765.956 116.754 765.962 116.834 765.985 116.909C766.008 116.984 766.048 117.053 766.102 117.111C766.658 117.78 767.176 118.479 767.721 119.156C768.481 120.101 768.841 121.186 768.974 122.363C769.033 122.886 769.086 123.41 769.131 123.935C769.155 124.212 769.14 124.218 768.88 124.084C768.177 123.711 767.499 123.295 766.849 122.838C766.142 122.355 765.45 121.854 764.78 121.322C764.576 121.157 764.33 121.051 764.069 121.016C763.305 120.892 762.522 120.996 761.818 121.315C761.114 121.633 760.522 122.152 760.117 122.804C759.986 123.015 759.985 123.152 760.198 123.281C760.234 123.305 760.269 123.333 760.301 123.362C760.788 123.781 760.789 123.782 760.524 124.382C760.487 124.467 760.443 124.551 760.4 124.633C760.019 125.347 759.537 125.903 758.595 125.691C758.517 125.68 758.439 125.678 758.36 125.684ZM760.857 116.789L759.466 115.242C759.349 115.113 759.285 115.242 759.217 115.297C758.513 115.905 757.81 116.515 757.108 117.127C757.048 117.179 756.96 117.214 756.947 117.326L760.857 116.789Z" fill="#162D4C"/>
<path d="M758.151 138.202L757.285 137.59C754.941 135.946 752.598 134.301 750.256 132.655C750.182 132.595 750.092 132.557 749.996 132.545C749.901 132.533 749.804 132.548 749.717 132.587C747.955 133.199 746.188 133.794 744.432 134.423C744.066 134.554 743.741 134.446 743.402 134.41C742.872 134.355 742.872 134.349 742.984 133.828C743.869 129.65 744.756 125.475 745.642 121.3C745.652 121.253 745.665 121.206 745.676 121.158C745.779 121.182 745.803 121.265 745.843 121.323C747.845 124.268 750.652 125.998 754.134 126.708C755.472 126.974 756.833 127.108 758.197 127.107C758.403 127.107 758.456 127.171 758.468 127.363C758.504 127.939 758.557 128.514 758.611 129.09C758.634 129.301 758.616 129.514 758.559 129.718C758.408 130.24 758.27 130.766 758.117 131.287C758.095 131.354 758.088 131.425 758.098 131.495C758.108 131.564 758.135 131.631 758.175 131.689C759.089 133.146 759.993 134.608 760.904 136.067C760.987 136.194 761.034 136.342 761.038 136.494C761.064 137.334 761.097 138.175 761.132 139.015C761.139 139.142 761.116 139.268 761.065 139.385C760.672 140.334 760.289 141.288 759.888 142.234C759.762 142.513 759.697 142.815 759.697 143.12C759.697 143.39 759.671 143.66 759.655 143.924C759.579 143.959 759.546 143.907 759.51 143.877C758.068 142.693 756.636 141.506 755.193 140.328C755.024 140.19 755.033 140.133 755.214 140.022C756.112 139.475 757.004 138.918 757.897 138.364C757.972 138.32 758.043 138.273 758.151 138.202Z" fill="#162D4C"/>
<path d="M749.918 133.554C750.002 133.563 750.08 133.601 750.138 133.662C751.48 134.593 752.822 135.522 754.164 136.45C754.321 136.557 754.36 136.654 754.319 136.846C753.907 138.784 753.519 140.736 753.118 142.68C753.079 142.845 753.104 143.017 753.188 143.165C753.351 143.471 753.497 143.786 753.646 144.094C753.57 144.176 753.489 144.144 753.417 144.144C751.779 144.144 750.14 144.144 748.5 144.151C748.43 144.158 748.359 144.142 748.299 144.103C748.24 144.065 748.196 144.008 748.174 143.941C748.055 143.678 747.928 143.418 747.783 143.167C747.739 143.096 747.714 143.014 747.711 142.931C747.707 142.847 747.726 142.765 747.765 142.69C748.447 141.088 749.118 139.481 749.798 137.879C749.881 137.686 749.923 137.477 749.921 137.267C749.913 136.034 749.918 134.803 749.918 133.554Z" fill="#162D4C"/>
<path d="M772.593 127.685C769.563 127.685 766.797 126.787 764.226 125.237C763.317 124.691 762.459 124.064 761.663 123.365C761.511 123.233 761.514 123.14 761.63 122.994C762.254 122.203 763.092 121.982 764.057 122.083C764.395 122.123 764.716 122.254 764.984 122.462C767.053 123.967 769.289 125.139 771.798 125.756C773.207 126.101 774.665 126.206 776.109 126.068C776.45 126.038 776.795 126.044 777.139 126.047C777.282 126.047 777.448 126.059 777.514 126.214C777.585 126.389 777.475 126.52 777.354 126.64C777.097 126.867 776.793 127.035 776.464 127.132C775.393 127.499 774.281 127.637 773.155 127.682C772.97 127.691 772.781 127.685 772.593 127.685Z" fill="#162D4C"/>
<path d="M764.924 126.586C765.934 127.164 767.018 127.605 768.146 127.898C768.428 127.974 768.713 128.032 769.001 128.074C769.171 128.096 769.193 128.168 769.176 128.306C769.144 128.73 769.049 129.146 768.893 129.542C768.284 130.944 767.588 132.309 767.002 133.724C766.758 134.312 766.506 134.898 766.384 135.526C766.242 136.24 766.742 136.759 767.469 136.63C767.664 136.595 767.723 136.642 767.759 136.821C767.813 137.105 767.841 137.393 767.845 137.681C767.851 137.749 767.835 137.816 767.8 137.874C767.765 137.932 767.712 137.977 767.649 138.004C766.84 138.417 766.071 138.269 765.371 137.783C764.628 137.268 764.341 136.487 764.297 135.62C764.24 134.547 764.383 133.484 764.523 132.422C764.704 131.059 764.999 129.713 765.135 128.342C765.179 127.895 765.032 127.469 764.992 127.03C764.975 126.896 764.95 126.76 764.924 126.586Z" fill="#162D4C"/>
<path d="M760.857 116.788L756.943 117.326C756.956 117.214 757.046 117.179 757.104 117.127C757.805 116.515 758.508 115.905 759.213 115.297C759.281 115.239 759.345 115.113 759.461 115.242L760.857 116.788Z" fill="#DCAA10"/>
<path d="M958.521 97.542C961.335 97.5811 964.019 98.1149 966.526 99.3899C968.736 100.521 970.538 102.103 971.768 104.283C972.567 105.723 973.092 107.298 973.314 108.929C973.771 112.061 973.309 115.09 972.276 118.052C971.669 119.79 970.829 121.419 969.92 123.02C968.067 126.278 965.686 129.102 962.917 131.605C959.364 134.82 955.468 137.633 951.299 139.995C949.684 140.907 948.01 141.673 946.208 142.141C945.105 142.44 943.966 142.584 942.823 142.57C941.318 142.539 940.141 141.854 939.226 140.7C938.38 139.664 937.945 138.354 938.002 137.018C938.012 136.646 938.065 136.277 938.161 135.918C938.706 133.982 939.447 132.128 940.553 130.438C941.399 129.147 942.407 128 943.726 127.18C945.192 126.267 946.786 125.877 948.509 126.253C949.048 126.38 949.555 126.615 949.999 126.946C951.134 127.757 951.075 129.029 950.53 129.842C950.063 130.548 949.541 131.216 948.969 131.84C948 132.884 946.971 133.871 945.966 134.881C945.077 135.774 944.241 136.712 943.564 137.78C943.213 138.334 942.889 138.9 942.792 139.565C942.67 140.4 943.103 140.968 943.946 141.047C944.382 141.082 944.82 141.038 945.24 140.917C946.535 140.559 947.737 139.982 948.917 139.359C950.738 138.396 952.418 137.219 954.056 135.977C956.042 134.472 957.972 132.902 959.751 131.156C961.778 129.17 963.584 127.011 964.966 124.519C965.976 122.7 966.72 120.779 967.05 118.719C967.343 116.904 967.18 115.136 966.339 113.47C965.934 112.647 965.301 111.957 964.515 111.484C964.152 111.265 963.752 111.116 963.334 111.043C961.815 110.774 960.346 110.995 958.901 111.477C957.396 111.98 956 112.714 954.642 113.517C951.696 115.264 948.746 117.011 945.939 118.979C944.531 119.965 943.167 121.014 941.788 122.039C940.541 122.965 939.304 123.903 937.942 124.66C936.837 125.29 935.641 125.744 934.397 126.006C932.855 126.319 931.434 126.028 930.128 125.19C928.773 124.32 927.825 123.127 927.408 121.548C927.143 120.551 927.247 119.562 927.476 118.578C927.81 117.133 928.444 115.824 929.235 114.583C931.19 111.518 933.648 108.918 936.506 106.695C940.743 103.401 945.404 100.865 950.446 99.0295C953.035 98.0826 955.765 97.5797 958.521 97.542Z" fill="#E20010"/>
<path d="M923.668 167.62C923.654 166.657 923.544 165.792 922.988 165.041C922.717 164.679 922.343 164.407 921.914 164.263C920.809 163.867 919.683 163.914 918.586 164.253C917.706 164.525 916.858 164.895 915.997 165.226C915.827 165.289 915.672 165.37 915.466 165.461C915.061 164.456 914.662 163.48 914.245 162.46C914.849 162.174 915.419 161.881 916.006 161.63C917.359 161.052 918.763 160.655 920.238 160.565C921.714 160.476 923.17 160.554 924.513 161.27C926.032 162.074 927.128 163.235 927.587 164.925C927.654 165.146 927.693 165.374 927.706 165.605C927.764 167.799 927.843 169.993 927.853 172.187C927.859 173.686 927.76 175.186 927.716 176.686C927.708 176.892 927.622 177.087 927.476 177.232C926.426 178.388 925.142 179.187 923.687 179.724C922.126 180.293 920.465 180.532 918.807 180.425C917.277 180.34 915.956 179.713 914.839 178.674C913.722 177.634 912.942 176.379 912.724 174.84C912.427 172.733 913.035 170.905 914.549 169.4C915.523 168.433 916.724 167.933 918.076 167.756C919.572 167.562 921.073 167.614 922.574 167.618L923.668 167.62ZM923.472 171.045C923.384 171.028 923.294 171.015 923.205 171.008C922.695 170.998 922.179 170.98 921.666 170.988C921.052 170.997 920.435 171 919.824 171.058C919.192 171.118 918.579 171.303 918.09 171.724C917.277 172.425 917.036 173.339 917.234 174.37C917.48 175.645 918.192 176.536 919.462 176.915C920.117 177.111 920.81 177.14 921.479 177C922.101 176.886 922.681 176.608 923.159 176.194C923.24 176.132 923.306 176.052 923.354 175.962C923.402 175.871 923.429 175.771 923.435 175.669C923.455 175.221 923.513 174.774 923.516 174.326C923.523 173.3 923.507 172.274 923.499 171.248C923.494 171.18 923.485 171.112 923.472 171.045Z" fill="#E20010"/>
<path d="M974.793 170.96C971.147 170.96 967.568 170.882 963.939 170.977C963.958 171.232 963.969 171.473 963.992 171.709C964.086 172.672 964.293 173.608 964.7 174.491C965.017 175.211 965.508 175.841 966.13 176.323C967.116 177.072 968.241 177.195 969.422 177.043C970.398 176.917 971.306 176.56 972.212 176.2C972.628 176.036 973.04 175.86 973.487 175.677C973.912 176.567 974.329 177.44 974.762 178.34C974.683 178.397 974.608 178.462 974.524 178.51C972.756 179.559 970.858 180.234 968.807 180.413C966.937 180.575 965.152 180.268 963.537 179.234C962.437 178.529 961.667 177.534 961.022 176.42C960.229 175.035 959.748 173.493 959.615 171.902C959.345 169.001 959.961 166.3 961.463 163.8C962.51 162.061 964.073 161.117 966.03 160.791C967.828 160.475 969.681 160.783 971.28 161.665C972.176 162.151 972.8 162.915 973.314 163.771C973.994 164.901 974.352 166.146 974.524 167.437C974.663 168.477 974.707 169.53 974.791 170.582C974.801 170.69 974.793 170.802 974.793 170.96ZM970.373 167.658C970.161 166.688 970.017 165.697 969.382 164.875C969.064 164.466 968.616 164.177 968.113 164.055C966.774 163.701 965.429 164.318 964.853 165.585C964.647 166.037 964.527 166.527 964.377 167.002C964.31 167.217 964.267 167.441 964.213 167.658C964.573 167.753 970.005 167.757 970.375 167.66L970.373 167.658Z" fill="#E20010"/>
<path d="M950.872 156.145L955.223 155.472V160.816C956.188 160.874 957.108 160.811 958.033 160.91V164.203C957.098 164.218 956.182 164.19 955.228 164.248C955.228 164.433 955.228 164.571 955.228 164.71C955.22 167.879 955.213 171.048 955.207 174.217C955.207 174.716 955.247 175.216 955.292 175.713C955.364 176.478 955.788 176.964 956.529 177.15C956.938 177.253 957.358 177.312 957.773 177.391L958.189 177.476V180.27C958.142 180.293 958.093 180.31 958.041 180.319C956.806 180.375 955.576 180.342 954.382 179.979C953.216 179.627 952.243 178.99 951.584 177.939C951.209 177.344 951.019 176.675 950.936 175.984C950.886 175.552 950.862 175.116 950.863 174.68C950.863 168.662 950.866 162.645 950.873 156.628L950.872 156.145Z" fill="#E20010"/>
<path d="M977.185 156.149L981.392 155.419V156C981.392 161.465 981.395 166.931 981.399 172.396C981.399 173.397 981.408 174.397 981.415 175.399C981.422 176.386 981.783 176.89 982.726 177.184C983.047 177.272 983.372 177.342 983.701 177.393C983.902 177.43 984.105 177.448 984.349 177.478V180.332C984.326 180.351 984.299 180.364 984.271 180.37C983.075 180.419 981.885 180.399 980.723 180.059C980.019 179.857 979.364 179.513 978.797 179.049C977.74 178.185 977.31 177.026 977.199 175.72C977.167 175.337 977.171 174.951 977.172 174.567C977.172 168.588 977.176 162.609 977.185 156.632V156.149Z" fill="#E20010"/>
<path d="M942.412 180.08H938.162C938.157 179.902 938.149 179.74 938.148 179.579C938.143 177.026 938.14 174.472 938.137 171.919C938.132 169.879 938.119 167.839 938.12 165.799C938.121 165.429 938.15 165.059 938.205 164.694C938.268 164.276 938.486 163.929 938.79 163.635C940.459 162.01 942.459 161.036 944.74 160.616C946.169 160.354 947.634 160.352 949.064 160.61C949.139 160.624 949.215 160.641 949.289 160.66C949.325 160.669 949.36 160.687 949.431 160.714C948.948 161.941 948.36 163.114 947.806 164.274C947.143 164.274 946.516 164.254 945.89 164.278C944.81 164.314 943.75 164.578 942.779 165.053C942.503 165.188 942.4 165.357 942.401 165.674C942.413 170.32 942.416 174.967 942.41 179.614L942.412 180.08Z" fill="#E20010"/>
<path d="M935.027 160.996C935.073 167.365 935.023 173.695 935.064 180.065H930.905C930.895 179.911 930.874 179.751 930.874 179.59C930.874 175.587 930.874 171.583 930.874 167.578C930.874 165.743 930.89 163.908 930.897 162.072C930.897 161.933 930.897 161.794 930.897 161.619L935.027 160.996Z" fill="#E20010"/>
<path d="M932.775 159.122C930.744 159.117 929.473 157.096 930.315 155.188C930.833 154.017 931.722 153.573 933.004 153.58C934.723 153.595 935.997 155.304 935.588 156.974C935.26 158.309 934.189 159.126 932.775 159.122Z" fill="#E20010"/>
<defs>
<clipPath id="clip0_110_175">
<rect width="117" height="46" fill="white" transform="translate(0 116)"/>
</clipPath>
<clipPath id="clip1_110_175">
<rect width="179" height="45" fill="white" transform="translate(217 116.5)"/>
</clipPath>
<clipPath id="clip2_110_175">
<rect width="107" height="62" fill="white" transform="translate(496 108)"/>
</clipPath>
</defs>
</svg>
